<?xml version="1.0" encoding="utf-8"?>
<!-- Generator: Adobe Illustrator 27.5.0, SVG Export Plug-In . SVG Version: 6.00 Build 0)  -->
<svg version="1.1" xmlns="http://www.w3.org/2000/svg" xmlns:xlink="http://www.w3.org/1999/xlink" x="0px" y="0px"
	 viewBox="0 0 750 500" style="enable-background:new 0 0 750 500;" xml:space="preserve">
<g id="BACKGROUND">
	<rect style="fill:transparent;" width="750" height="500"/>
</g>
<g id="OBJECTS">
	<g>
		<circle style="fill:#31100B;" cx="396.408" cy="355.252" r="87.111"/>
		<circle style="fill:#DBA14F;" cx="384.408" cy="355.252" r="87.111"/>
		
			<ellipse transform="matrix(0.9914 -0.1305 0.1305 0.9914 -43.0705 53.1996)" style="fill:none;stroke:#FEFFFF;stroke-width:0.75;stroke-linecap:round;stroke-linejoin:round;stroke-miterlimit:10;" cx="384.407" cy="355.252" rx="67.111" ry="67.111"/>
		<g>
			<path style="fill:#31100B;" d="M281.189,368.39c-0.568,0-1.078-0.398-1.197-0.977c-1.196-5.829-1.802-11.825-1.802-17.823
				c0-5.842,0.576-11.687,1.711-17.372c0.133-0.662,0.777-1.097,1.439-0.959c0.662,0.132,1.092,0.776,0.96,1.439
				c-1.104,5.528-1.664,11.211-1.664,16.893c0,5.833,0.589,11.664,1.752,17.331c0.136,0.662-0.291,1.308-0.952,1.444
				C281.353,368.382,281.27,368.39,281.189,368.39z"/>
			<path style="fill:#31100B;" d="M269.439,375.903c-0.548,0-1.047-0.371-1.186-0.927c-2.062-8.26-3.107-16.801-3.107-25.386
				c0-8.117,0.936-16.205,2.781-24.041c0.155-0.658,0.814-1.065,1.471-0.91c0.658,0.154,1.065,0.813,0.91,1.47
				c-1.802,7.652-2.716,15.552-2.716,23.48c0,8.385,1.021,16.727,3.035,24.794c0.163,0.655-0.235,1.319-0.891,1.482
				C269.636,375.891,269.537,375.903,269.439,375.903z"/>
		</g>
		<g>
			<path style="fill:#31100B;" d="M500.059,368.39c0.569,0,1.078-0.398,1.197-0.977c1.196-5.829,1.802-11.825,1.802-17.823
				c0-5.842-0.576-11.687-1.711-17.372c-0.133-0.662-0.777-1.097-1.439-0.959c-0.662,0.132-1.092,0.776-0.96,1.439
				c1.104,5.528,1.664,11.211,1.664,16.893c0,5.833-0.59,11.664-1.752,17.331c-0.136,0.662,0.291,1.308,0.952,1.444
				C499.895,368.382,499.978,368.39,500.059,368.39z"/>
			<path style="fill:#31100B;" d="M511.81,375.903c0.548,0,1.047-0.371,1.186-0.927c2.062-8.26,3.107-16.801,3.107-25.386
				c0-8.117-0.936-16.205-2.781-24.041c-0.155-0.658-0.814-1.065-1.471-0.91c-0.658,0.154-1.065,0.813-0.91,1.47
				c1.802,7.652,2.716,15.552,2.716,23.48c0,8.385-1.021,16.727-3.035,24.794c-0.163,0.655,0.235,1.319,0.891,1.482
				C511.612,375.891,511.712,375.903,511.81,375.903z"/>
		</g>
	</g>
	<g>
		<rect x="174.616" y="254.271" style="fill:#FEFFFF;" width="412.111" height="13.576"/>
		<path style="fill:#F2E5DC;" d="M543.783,267.847h42.944v-13.576h-54.496C535.703,257.204,540.805,262.132,543.783,267.847z"/>
		<path style="fill:#F2E5DC;" d="M174.616,267.847h34.398c0,0,3.553-11.042,18.744-13.576h-53.142V267.847z"/>
	</g>
	
		<line style="fill:none;stroke:#31100B;stroke-width:0.75;stroke-linecap:round;stroke-linejoin:round;stroke-miterlimit:10;" x1="84.468" y1="442.363" x2="665.513" y2="442.363"/>
	<g>
		<g>
			<polygon style="fill:#DBA14F;" points="608.638,248.578 626.304,326.145 600.638,341.478 579.971,285.478 			"/>
			<path style="fill:#31100B;" d="M589.738,311.945c3.015-13.993,9.221-32.892,9.221-32.892l-8.092-7.601l-10.897,14.026
				L589.738,311.945z"/>
			<polygon style="fill:#31100B;" points="600.638,341.478 609.584,340.949 607.631,337.301 			"/>
		</g>
		<g>
			<path style="fill:#DBA14F;" d="M468.138,203.812l72.666,1.167l3.01,8.167l58.574,4.083c0,0,21.25,2.5,13.25,24.5
				s-37.459,78.821-37.459,78.821s-12.758-4.002-35.508,4.248l24.717-70.569h-89c0,0-20.366-6.148-17.5-28.5
				C462.138,215.978,468.138,203.812,468.138,203.812z"/>
			<path style="fill:none;stroke:#31100B;stroke-width:0.75;stroke-linecap:round;stroke-linejoin:round;stroke-miterlimit:10;" d="
				M610.126,255.113c-6.672,15.093-16.426,34.835-23.399,48.672"/>
			<path style="fill:#31100B;" d="M463.648,214.753c18.144-7.313,44.839-10.293,44.84-10.294l-40.35-0.648
				C468.138,203.812,465.731,208.695,463.648,214.753z"/>
			
				<line style="fill:none;stroke:#31100B;stroke-width:0.75;stroke-linecap:round;stroke-linejoin:round;stroke-miterlimit:10;" x1="543.814" y1="213.145" x2="511.138" y2="211.603"/>
			
				<line style="fill:none;stroke:#31100B;stroke-width:0.75;stroke-linecap:round;stroke-linejoin:round;stroke-miterlimit:10;" x1="523.259" y1="204.978" x2="525.011" y2="212.258"/>
			<path style="fill:#31100B;" d="M578.179,320.549l-16.856,6.445c-9.994,1.247-18.345,0.264-18.652-2.197
				c-0.307-2.461,7.546-5.467,17.54-6.714C570.205,316.836,577.871,318.089,578.179,320.549z"/>
			<polygon style="fill:#31100B;" points="567.388,254.228 572.013,243.603 562.263,254.228 			"/>
		</g>
		<g>
			<path style="fill:#F8918A;" d="M555.628,318.803l-9.99,35.925c0,0-5.875,5.875-4.5,9.875s28.625,21,39.5,17.375
				c0,0,2.875-1.75-0.875-5.125s-14.75-21-14.625-25.875l13.041-30.429C578.179,320.549,577.575,315.228,555.628,318.803z"/>
			<path style="fill:#BB583B;" d="M555.628,318.803l-2.415,8.682v0c9.357-4.463,24.965-6.937,24.965-6.937
				S577.575,315.228,555.628,318.803z"/>
			<path style="fill:#31100B;" d="M541.138,364.603c1.375,4,28.625,21,39.5,17.375c0,0,2.875-1.75-0.875-5.125
				s-14.75-21-14.625-25.875c-3.75-1.875-8,6.625-11.125,7.625s-8.375-3.875-8.375-3.875S539.763,360.603,541.138,364.603z"/>
		</g>
		<g>
			<path style="fill:#F8918A;" d="M626.304,326.145l4.833,19.333c0,0,6.375,4.593,14.125,4.547s19.375-3.953,20.25,0
				s-24.458,24.52-39.208,22.145l-18.674-34.87L626.304,326.145z"/>
			<path style="fill:#31100B;" d="M628.388,352.478c0.214,4.805-3.97,8.227-8.576,7.569l6.492,12.123
				c14.75,2.375,40.083-18.192,39.208-22.145s-12.5-0.047-20.25,0s-14.125-4.547-14.125-4.547S628.138,346.853,628.388,352.478z"/>
			<path style="fill:none;stroke:#FEFFFF;stroke-width:0.75;stroke-linecap:round;stroke-linejoin:round;stroke-miterlimit:10;" d="
				M626.304,372.17c0,0,37.208-29.474,39.208-22.145"/>
			<path style="fill:#BB583B;" d="M626.304,326.145c0,0-15.343,11.195-16.005,16.139l-2.669-4.984L626.304,326.145z"/>
		</g>
		<g>
			<path style="fill:#5B75C9;" d="M514.74,105.353l2.787-6.027c0.592-1.28,1.793-2.162,3.191-2.344
				c2.442-0.318,6.538-0.572,10.796,0.394c6.747,1.531,6.511,2.777,6.511,2.777l2.612,7.45l17.41,6.799
				c4.321,1.688,7.738,5.173,9.172,9.585c0.886,2.725,1.326,6.166,0.667,10.366c-2,12.75-10.125,55.125-10.125,55.125l15.811,25.741
				l-29.759-2.075l-3.01-8.167l-68.5-1.167l3.926,26.173l-22.065,10.193c0,0-24.194-44.699-19.528-64.366
				c4.667-19.667,39.333-60.333,39.333-60.333s7.073-7.476,15-8.563C497.638,105.728,514.74,105.353,514.74,105.353z"/>
			
				<polyline style="fill:none;stroke:#31100B;stroke-width:0.75;stroke-linecap:round;stroke-linejoin:round;stroke-miterlimit:10;" points="
				472.304,203.812 471.471,182.645 494.304,147.312 			"/>
			<path style="fill:none;stroke:#31100B;stroke-width:0.75;stroke-linecap:round;stroke-linejoin:round;stroke-miterlimit:10;" d="
				M497.804,119.478c0,0-3.843-10.065-13.922-11.033"/>
			
				<line style="fill:none;stroke:#31100B;stroke-width:0.75;stroke-linecap:round;stroke-linejoin:round;stroke-miterlimit:10;" x1="540.804" y1="204.978" x2="558.804" y2="150.758"/>
			
				<ellipse transform="matrix(0.9078 -0.4194 0.4194 0.9078 -55.7017 216.7549)" style="fill:#31100B;" cx="465.198" cy="235.081" rx="12.153" ry="3.46"/>
		</g>
		<g>
			<path style="fill:#FEFFFF;" d="M531.515,97.376c-4.258-0.966-8.354-0.713-10.796-0.394c-1.398,0.182-2.599,1.065-3.191,2.344
				l-2.787,6.027l5.696,15.875c0,0-5.466,40.083-15.132,83.145l26.211,0.446c0,0,12.956-54.062,8.735-83.873
				c0,0,1.882-8.885,0.387-13.343l-2.612-7.45C538.026,100.153,538.262,98.907,531.515,97.376z"/>
			
				<line style="fill:none;stroke:#31100B;stroke-width:0.75;stroke-linecap:round;stroke-linejoin:round;stroke-miterlimit:10;" x1="520.437" y1="121.228" x2="527.846" y2="112.228"/>
			
				<polyline style="fill:none;stroke:#31100B;stroke-width:0.75;stroke-linecap:round;stroke-linejoin:round;stroke-miterlimit:10;" points="
				533.764,115.812 539.138,110.645 540.25,120.947 			"/>
			<path style="fill:#DBA14F;" d="M534.721,120.145h-7.583c0,0-1.25,1.75-1.417,4.417c-0.167,2.667,1.833,5.333,1.833,5.333
				l-11.083,61.25h14.5l2.793-61.25c0,0,1.541-2.417,2.041-4.667S534.721,120.145,534.721,120.145z"/>
			<path style="fill:none;stroke:#31100B;stroke-width:0.75;stroke-linecap:round;stroke-linejoin:round;stroke-miterlimit:10;" d="
				M527.554,129.895c0,0,4.399-1.715,6.209,0"/>
		</g>
		<g>
			<path style="fill:#F8918A;" d="M520.437,101.395l3.284-12.333l16.917-2.708l-3.083,16.292c0,0-3.453,12.083-6.727,16.833
				l-2.982-7.25L520.437,101.395z"/>
			<path style="fill:#31100B;" d="M521.527,97.302c10.445,0.877,13.324-6.297,13.324-6.297l0.746-3.844l-11.875,1.901
				L521.527,97.302z"/>
			<path style="fill:#31100B;" d="M534.888,64.353c0,0-0.625-5.625,3.25-6.625s9.674,6.453,6.875,12
				c-2.799,5.547-6.25,2.75-6.25,2.75S537.888,67.853,534.888,64.353z"/>
			<path style="fill:#F8918A;" d="M541.388,79.728c0,0,4.5-14.125-6.5-17.375c-11-3.25-17.875,8.75-16,18.25
				c0,0-4.5,0.625-4.125,5.5s8.875,10.5,16.625,8.625s9.25-8.375,9.25-8.375s4.125,2.375,6.5-2.125s0.66-7.124-1.375-7.625
				C543.054,75.937,541.388,79.728,541.388,79.728z"/>
			<path style="fill:#31100B;" d="M541.844,77.858c0.784-3.948,1.564-12.987-6.957-15.504c-5.595-1.653-10.12,0.643-12.972,4.546
				c0.481,1.599,1.767,2.63,3.347,3.204c2.75,1,6.875-4.375,9.875-1.875s0.5,4,0.875,7.75s5.375,3.75,5.375,3.75L541.844,77.858z"/>
			
				<line style="fill:none;stroke:#31100B;stroke-width:0.75;stroke-linecap:round;stroke-linejoin:round;stroke-miterlimit:10;" x1="542.054" y1="83.02" x2="546.096" y2="79.728"/>
			<path style="fill:none;stroke:#31100B;stroke-width:0.75;stroke-linecap:round;stroke-linejoin:round;stroke-miterlimit:10;" d="
				M544.421,81.093c0,0,0.925,2.177-0.575,3.386"/>
			<path style="fill:none;stroke:#31100B;stroke-width:0.75;stroke-linecap:round;stroke-linejoin:round;stroke-miterlimit:10;" d="
				M523.221,83.478c0,0-2.167-0.188-1.917-2.386c0.25-2.198,3.75,0.281,3.75,0.281"/>
			<path style="fill:none;stroke:#31100B;stroke-width:0.75;stroke-linecap:round;stroke-linejoin:round;stroke-miterlimit:10;" d="
				M523.721,80.603c0,0,1.042-2.5,1.333-3.916"/>
			<path style="fill:none;stroke:#31100B;stroke-width:0.75;stroke-linecap:round;stroke-linejoin:round;stroke-miterlimit:10;" d="
				M524.388,86.103c0,0,2.167,1.125,3.458-0.25"/>
			<path style="fill:#31100B;" d="M530.294,77.861c-0.102,0.578-0.469,0.996-0.821,0.934c-0.351-0.062-0.553-0.581-0.451-1.159
				c0.102-0.578,0.469-0.996,0.821-0.934C530.194,76.765,530.396,77.283,530.294,77.861z"/>
			<path style="fill:#31100B;" d="M522.258,76.768c-0.074,0.582-0.42,1.018-0.774,0.973c-0.354-0.045-0.581-0.553-0.507-1.135
				c0.074-0.582,0.42-1.018,0.774-0.973C522.104,75.677,522.331,76.186,522.258,76.768z"/>
			<g>
				
					<line style="fill:none;stroke:#BB583B;stroke-width:0.75;stroke-linecap:round;stroke-linejoin:round;stroke-miterlimit:10;" x1="518.429" y1="87.645" x2="516.556" y2="89.923"/>
				
					<line style="fill:none;stroke:#BB583B;stroke-width:0.75;stroke-linecap:round;stroke-linejoin:round;stroke-miterlimit:10;" x1="521.284" y1="89.497" x2="519.589" y2="92.513"/>
				
					<line style="fill:none;stroke:#BB583B;stroke-width:0.75;stroke-linecap:round;stroke-linejoin:round;stroke-miterlimit:10;" x1="523.971" y1="91.005" x2="522.713" y2="94.068"/>
				
					<line style="fill:none;stroke:#BB583B;stroke-width:0.75;stroke-linecap:round;stroke-linejoin:round;stroke-miterlimit:10;" x1="527.138" y1="91.312" x2="526.879" y2="95.034"/>
				
					<line style="fill:none;stroke:#BB583B;stroke-width:0.75;stroke-linecap:round;stroke-linejoin:round;stroke-miterlimit:10;" x1="530.346" y1="91.312" x2="530.828" y2="94.849"/>
				
					<line style="fill:none;stroke:#BB583B;stroke-width:0.75;stroke-linecap:round;stroke-linejoin:round;stroke-miterlimit:10;" x1="533.054" y1="90.642" x2="534.473" y2="93.607"/>
				
					<line style="fill:none;stroke:#BB583B;stroke-width:0.75;stroke-linecap:round;stroke-linejoin:round;stroke-miterlimit:10;" x1="535.596" y1="89.062" x2="537.372" y2="91.592"/>
			</g>
		</g>
		<g>
			<path style="fill:#F8918A;" d="M459.157,234.428l6.865,14.046c0.359,0.734,0.835,1.402,1.424,1.967
				c1.429,1.369,4.31,3.736,7.317,3.913c4.25,0.25,10.875-2,10.875-2s8.125,7.625,10,7.5s1.25-1.875,1.25-1.875
				s2.5,2.003,3.625,1.877c1.125-0.127,0-2.002,0-2.002s4.625,2.64,5.625,2.007s-0.625-2.882-0.625-2.882s4.58,1.293,2.375-1.75
				c-8.424-11.625-7.5-18.875-10-19.125s-19.625,4.074-19.625,4.074l-4.939-11.068c0,0-2.381,0.009-7.069,1.769
				C461.568,232.638,459.157,234.428,459.157,234.428z"/>
			
				<line style="fill:none;stroke:#31100B;stroke-width:0.75;stroke-linecap:round;stroke-linejoin:round;stroke-miterlimit:10;" x1="496.888" y1="257.978" x2="488.388" y2="247.478"/>
			<path style="fill:none;stroke:#31100B;stroke-width:0.75;stroke-linecap:round;stroke-linejoin:round;stroke-miterlimit:10;" d="
				M500.513,257.853c0,0-6.167-8.083-8.625-14.25"/>
			<path style="fill:none;stroke:#31100B;stroke-width:0.75;stroke-linecap:round;stroke-linejoin:round;stroke-miterlimit:10;" d="
				M505.513,256.978c0,0-6.75-7.583-10.125-16.801"/>
			
				<line style="fill:none;stroke:#31100B;stroke-width:0.75;stroke-linecap:round;stroke-linejoin:round;stroke-miterlimit:10;" x1="485.638" y1="252.353" x2="484.346" y2="251.103"/>
		</g>
	</g>
	<g>
		<g>
			<path style="fill:#5B75C9;" d="M281.074,195.86c0,0,21.541,38.958,2.083,58.292h-90.146l13.938,102.583c0,0,8,4.75,7.25,9.75
				s-19,32.5-28.25,32c0,0-2.5-2,0-8.5s6-21,2.75-33.25s-37-87.75-37-87.75l-19.75,51c0,0-1,3.25-16.75,0.5s-40.75-12.25-26.5-15.5
				s28.25-3,31-11s13-88,13-88s3.25-28.75,30.75-19.5l45.897,28.5l5.064-0.25c0,0,2.289-9.75,8.289-18.875H281.074z"/>
			<path style="fill:#BB583B;" d="M128.942,234.459c-3.219,23.836-7.588,54.713-9.243,59.527c-2.75,8-16.75,7.75-31,11
				s10.75,12.75,26.5,15.5s16.75-0.5,16.75-0.5l19.75-51l8.754-21.5C155.799,237.969,136.22,235.177,128.942,234.459z"/>
			<path style="fill:#DBA14F;" d="M88.699,304.985c-14.25,3.25,10.75,12.75,26.5,15.5s16.75-0.5,16.75-0.5l5.906-15.252
				c-3.365,2.58-9.589,6.292-9.406-1.748c0.25-11-8.75-9-8.75-9C116.949,301.985,102.949,301.735,88.699,304.985z"/>
			<path style="fill:#31100B;" d="M97.949,307.716c-7.098-1.491-11.091-1.309-13.344-0.606c-1.954,4.148,17.51,11.091,30.594,13.375
				c10.345,1.806,14.326,1.024,15.841,0.275C126.441,315.137,110.047,310.258,97.949,307.716z"/>
			<path style="fill:#BB583B;" d="M206.949,356.735l-9.019-66.38c-9.342,10.722-23.16,17.089-28.379,19.229
				c8.667,20.024,17.558,41.157,19.148,47.151c3.25,12.25-0.25,26.75-2.75,33.25s0,8.5,0,8.5c9.25,0.5,27.5-27,28.25-32
				S206.949,356.735,206.949,356.735z"/>
			<path style="fill:#DBA14F;" d="M198.449,365.069c-2.896-3.335-6.291-3.981-8.865-3.854c1.536,11.128-1.434,23.049-3.635,28.771
				c-2.5,6.5,0,8.5,0,8.5c9.25,0.5,27.5-27,28.25-32s-7.25-9.75-7.25-9.75C207.616,364.402,203.949,371.402,198.449,365.069z"/>
			<polygon style="fill:#31100B;" points="193.012,254.152 191.074,244.485 199.449,254.152 			"/>
			
				<polyline style="fill:none;stroke:#31100B;stroke-width:0.75;stroke-linecap:round;stroke-linejoin:round;stroke-miterlimit:10;" points="
				151.699,268.985 172.173,218.701 209.346,214.985 240.949,212.11 			"/>
			
				<line style="fill:none;stroke:#31100B;stroke-width:0.75;stroke-linecap:round;stroke-linejoin:round;stroke-miterlimit:10;" x1="172.173" y1="218.701" x2="174.616" y2="212.693"/>
			<path style="fill:none;stroke:#31100B;stroke-width:0.75;stroke-linecap:round;stroke-linejoin:round;stroke-miterlimit:10;" d="
				M235.366,195.86c0,0-3.647,9.334-3.657,16.105"/>
			<path style="fill:#31100B;" d="M283.863,201.627c0,0-15.414-4.808-29.747-5.767h26.958L283.863,201.627z"/>
		</g>
		<g>
			<path style="fill:#FEFFFF;" d="M221.199,107.36l-16.5,8.75c0,0-10.375,7.625-12.5,18.375c-1.281,6.48-2.698,23.45-3.622,35.911
				l26.872,12.589c0,0,6.625,8.625,7.25,12.875h58.375l0.875-20l5,5.875l27.973-9.698c0,0-3.72-7.894-6.816-13.678
				c-5.965-11.145-14.694-25.495-24.49-35.291c0,0-9.167-9-18.667-12c-6.141-1.939-27.25-5.583-27.25-5.583L221.199,107.36z"/>
			<path style="fill:none;stroke:#31100B;stroke-width:0.75;stroke-linecap:round;stroke-linejoin:round;stroke-miterlimit:10;" d="
				M215.449,182.985c0,0-4.125-4.5-8.75-8s-6.875-8.375-4.5-18.25s1.375-13.875,1.375-13.875"/>
			
				<line style="fill:none;stroke:#31100B;stroke-width:0.75;stroke-linecap:round;stroke-linejoin:round;stroke-miterlimit:10;" x1="272.949" y1="163.735" x2="264.449" y2="152.985"/>
		</g>
		<g>
			<path style="fill:#BB583B;" d="M219.616,145.485c8.583,1,15.226-2.25,18.404-11c3.179-8.75,8.679-27.125,8.679-27.125l0.08-0.234
				c-5.05-0.945-9.08-1.641-9.08-1.641l-16.5,1.875l-5.5,2.917l-3.167,25.958C212.533,136.235,211.033,144.485,219.616,145.485z"/>
			<path style="fill:#DBA14F;" d="M219.616,68.485c0,0-1.167-9.75-11.583-9.75c-10.417,0-13.75,26.583,3.583,24.583l5.917-1
				L219.616,68.485z"/>
			<path style="fill:#FEFFFF;" d="M222.366,74.249c0,3.682-2.201,6.667-4.917,6.667c-2.715,0-4.917-2.985-4.917-6.667
				s2.201-6.667,4.917-6.667C220.165,67.583,222.366,70.567,222.366,74.249z"/>
			<path style="fill:#BB583B;" d="M215.699,81.86c0,0-3.625-11.875,5.25-15.625s16.5,3.625,18.375,12.625c0,0,8,5,5.25,11.75
				c-2.756,6.764-9.625,6.125-9.625,6.125l2.75,8.75l-16.5,1.875l-3.875-17.75c0,0-3.875,1.126-6.25-3.312
				C208.699,81.86,212.824,78.86,215.699,81.86z"/>
			<path style="fill:#DBA14F;" d="M222.116,78.402c0,0,10.086-6.006,10.254-10.92c-3.187-2.278-7.159-3.047-11.421-1.247
				c-8.875,3.75-5.25,15.625-5.25,15.625l1.417,3.708C217.116,85.568,221.949,84.735,222.116,78.402z"/>
			
				<line style="fill:none;stroke:#31100B;stroke-width:0.75;stroke-linecap:round;stroke-linejoin:round;stroke-miterlimit:10;" x1="212.533" y1="83.673" x2="215.699" y2="85.568"/>
			<path style="fill:none;stroke:#31100B;stroke-width:0.75;stroke-linecap:round;stroke-linejoin:round;stroke-miterlimit:10;" d="
				M213.814,84.44c0,0-0.615,1.858,0.76,2.545"/>
			<path style="fill:#31100B;" d="M234.949,96.735c0,0-6.937-0.5-10.187-3.063c0,0,4.517,6.623,11.415,6.968L234.949,96.735z"/>
			<path style="fill:none;stroke:#31100B;stroke-width:0.75;stroke-linecap:round;stroke-linejoin:round;stroke-miterlimit:10;" d="
				M237.074,83.653c0,0,1.065-0.885,0.936-2.29c-0.202-2.203-3.3,0.629-3.3,0.629"/>
			<path style="fill:none;stroke:#31100B;stroke-width:0.75;stroke-linecap:round;stroke-linejoin:round;stroke-miterlimit:10;" d="
				M235.544,81.298c0,0-1.457-2.282-1.989-3.627"/>
			<path style="fill:#31100B;" d="M228.663,80.266c0.165,0.563,0.576,0.939,0.918,0.838c0.342-0.1,0.486-0.638,0.322-1.201
				c-0.165-0.563-0.576-0.939-0.918-0.839C228.642,79.165,228.498,79.703,228.663,80.266z"/>
			<path style="fill:#31100B;" d="M236.532,78.298c0.137,0.571,0.53,0.965,0.876,0.882c0.347-0.083,0.517-0.613,0.38-1.184
				c-0.137-0.571-0.53-0.965-0.876-0.882C236.564,77.197,236.394,77.727,236.532,78.298z"/>
			<path style="fill:#FEFFFF;" d="M233.158,86.527l3.019,0.458c0,0-1.102,2.625-2.144,2.583
				C232.991,89.527,233.158,86.527,233.158,86.527z"/>
			<path style="fill:none;stroke:#DBA14F;stroke-width:0.75;stroke-linecap:round;stroke-linejoin:round;stroke-miterlimit:10;" d="
				M220.919,94.688c0,3.288-2.665,5.953-5.953,5.953c-3.287,0-5.953-2.665-5.953-5.953c0-3.288,2.665-5.953,5.953-5.953
				C218.254,88.735,220.919,91.4,220.919,94.688z"/>
			
				<line style="fill:none;stroke:#31100B;stroke-width:0.75;stroke-linecap:round;stroke-linejoin:round;stroke-miterlimit:10;" x1="221.199" y1="107.36" x2="222.199" y2="112.318"/>
		</g>
		<g>
			<path style="fill:#BB583B;" d="M212.949,203.235c1.226-5.794,2.252-17.339,2.461-19.781c-2.63-4.267-8.711-8.469-8.711-8.469
				l-18.122-4.589c-0.609,8.21-1.003,14.464-1.003,14.464s-26.625-8-33.125-7.625s-15.5,13.125-20.5,14.875s-1.875,4.5,4.5,2
				c0,0-2.75,3.75-2.875,5.25s2.75,0,2.75,0s-1.5,2.375-0.25,3.5s9.5-9.75,12.75-11.625s8.25-3.875,8.25-3.875
				s-3.375,4.5-7.375,6.125c-1.867,0.759-0.625,3.75,3.375,2.625s9-2.813,12.375-6.625l37.375,22.625
				C204.824,212.11,211.574,209.735,212.949,203.235z"/>
			
				<line style="fill:none;stroke:#31100B;stroke-width:0.75;stroke-linecap:round;stroke-linejoin:round;stroke-miterlimit:10;" x1="187.574" y1="184.86" x2="198.449" y2="188.11"/>
			<path style="fill:none;stroke:#31100B;stroke-width:0.75;stroke-linecap:round;stroke-linejoin:round;stroke-miterlimit:10;" d="
				M138.324,199.36c0,0,4-6.625,7.875-10.5c1.437-1.437,2.616-2.616,3.531-3.531"/>
			
				<line style="fill:none;stroke:#31100B;stroke-width:0.75;stroke-linecap:round;stroke-linejoin:round;stroke-miterlimit:10;" x1="138.449" y1="194.11" x2="146.049" y2="184.452"/>
			
				<line style="fill:none;stroke:#31100B;stroke-width:0.75;stroke-linecap:round;stroke-linejoin:round;stroke-miterlimit:10;" x1="167.449" y1="189.485" x2="169.012" y2="187.048"/>
		</g>
		<g>
			<path style="fill:#943E25;" d="M263.449,239.235c0,0-7.75,2.25-10.125,2.25s-3.375,5.5,5.063,4.5L263.449,239.235z"/>
			<path style="fill:#BB583B;" d="M296.949,245.318c3.145-6.684,18.162-44.9,19.286-66.553c0.12-2.319-0.342-4.619-1.314-6.728
				c-2.417-5.249-7.898-16.568-15.13-27.99l0,0c-13.16,4.645-26.843,19.688-26.843,19.688l9,12.125l5,5.875
				c0,0-1.75,48.875-6.75,57.5c0,0-11-6.583-13.833-5c-2.174,1.215-7.389,8.364-9.699,11.628c-0.715,1.01-0.886,2.303-0.461,3.465
				l1.329,3.636c0.499,1.364,1.797,2.272,3.249,2.272h11.914c0,0,1.917,0,2.917-1.083h14.5
				C290.116,254.152,293.616,252.402,296.949,245.318z"/>
			<path style="fill:none;stroke:#31100B;stroke-width:0.75;stroke-linecap:round;stroke-linejoin:round;stroke-miterlimit:10;" d="
				M262.074,255.235v-7.549c0-0.703,0.201-1.391,0.578-1.984l3.797-5.967"/>
			<path style="fill:none;stroke:#31100B;stroke-width:0.75;stroke-linecap:round;stroke-linejoin:round;stroke-miterlimit:10;" d="
				M264.824,255.235l3.059-8.589c0.126-0.355,0.307-0.689,0.534-0.99l3.156-4.171"/>
			
				<line style="fill:none;stroke:#31100B;stroke-width:0.75;stroke-linecap:round;stroke-linejoin:round;stroke-miterlimit:10;" x1="268.199" y1="255.235" x2="276.449" y2="244.735"/>
			
				<line style="fill:none;stroke:#31100B;stroke-width:0.75;stroke-linecap:round;stroke-linejoin:round;stroke-miterlimit:10;" x1="275.616" y1="254.152" x2="281.949" y2="248.36"/>
			
				<line style="fill:none;stroke:#31100B;stroke-width:0.75;stroke-linecap:round;stroke-linejoin:round;stroke-miterlimit:10;" x1="280.199" y1="239.235" x2="286.115" y2="242.735"/>
		</g>
	</g>
</g>
<g id="TEXTS">
	<text transform="matrix(1 0 0 1 362.3489 381.7817)" style="fill:#FEFFFF; font-family:'Boogaloo-Regular'; font-size:86px;">$</text>
</g>
</svg>
