<?xml version="1.0" encoding="utf-8"?>
<!-- Generator: Adobe Illustrator 27.5.0, SVG Export Plug-In . SVG Version: 6.00 Build 0)  -->
<svg version="1.1" xmlns="http://www.w3.org/2000/svg" xmlns:xlink="http://www.w3.org/1999/xlink" x="0px" y="0px"
	 viewBox="0 0 500 500" style="enable-background:new 0 0 500 500;" xml:space="preserve">
<g id="BACKGROUND">
	<rect style="fill:transparent;" width="500" height="500"/>
</g>
<g id="OBJECTS">
	<path style="fill:#FCEFEA;" d="M21.426,271.969C6.898,101.862,350.506-13.467,451.927,114.705
		c44.811,61.185,19.129,175.756-33.069,225.561c-67.057,41.445-149.049,53.534-226.683,45.907
		c-45.692-4.462-96.381-11.876-129.941-46.293C36.018,328.252,24.402,298.997,21.426,271.969z"/>
	<g>
		<g>
			<g>
				<g>
					<path style="fill:#F7B385;" d="M302.694,228.052c3.345,9.393,6.489,18.856,9.557,28.342c1.879,5.81,3.728,11.63,5.578,17.45
						c0.254,0.801,0.511,1.65,0.316,2.467c-0.395,1.653-3.259,1.571-4.65,1.931c-1.55,0.402-3.183,0.998-4.784,1.151
						c-2.98,0.288-6.485-0.216-8.451-2.714c-1.015-1.29-0.857-2.673-1.363-4.152c-0.651-1.901-1.397-3.775-2.124-5.648
						c-2.941-7.579-6.203-15.033-9.775-22.336c-1.853-3.788-3.79-7.54-5.401-11.437c-1.399-3.385-3.202-7.902-2.386-11.634
						c0.767-3.507,0.332-7.153,0.039-10.752c-0.677-8.309-2.059-16.56-4.131-24.635c4.907,0.694,9.321,6.695,12.378,10.233
						c1.678,1.942,3.062,4.089,4.672,6.074c1.511,1.863,2.259,3.78,3.157,6.037c2.089,5.251,4.086,10.538,6.014,15.85
						C301.794,225.536,302.246,226.794,302.694,228.052z"/>
					<path style="fill:#E0764C;" d="M301.573,245.481c0.467-0.191,0.944-0.385,1.448-0.42c0.504-0.034,1.047,0.118,1.363,0.511
						c-0.175,0.613-0.634,1.114-1.166,1.466c-0.532,0.352-1.138,0.573-1.737,0.79c-1.73,0.628-3.461,1.257-5.191,1.885
						c-0.581,0.211-2.028,0.439-1.977-0.613c0.034-0.692,1.163-1.107,1.676-1.331C297.832,246.968,299.713,246.244,301.573,245.481z
						"/>
				</g>
				<path style="fill:#2F5F7D;" d="M305.468,219.83c-0.116,0.147-0.234,0.29-0.353,0.43c-4.983,5.849-12.467,8.83-19.672,11.5
					c-1.102,0.408-2.302,0.819-3.427,0.479c-1.576-0.476-1.575-2.255-1.797-3.592c-0.35-2.103-0.756-4.197-1.099-6.301
					c-0.688-4.22-1.28-8.456-1.775-12.703c-0.991-8.494-1.596-17.033-1.811-25.582c2.449,2.012,5.134,3.742,7.579,5.838
					c2.633,2.257,5.199,4.592,7.695,7c5.049,4.87,9.811,10.038,14.259,15.462c0.886,1.08,1.797,2.263,1.904,3.656
					C307.075,217.414,306.348,218.714,305.468,219.83z"/>
			</g>
			<path style="fill:#3F7EA6;" d="M290.581,289.936c-0.733-18.604-2.093-37.183-4.076-55.696
				c-0.992-9.256-2.139-18.496-3.442-27.714c-0.257-1.819-0.553-3.654-0.73-5.482c-0.139-1.447-0.607-2.552-1.012-3.952
				c-0.862-2.981-0.961-6.213-2.467-8.986c-1.807-3.326-5.326-5.328-8.802-6.828c-11.937-5.15-25.549-6.329-38.193-3.306
				c-3.142,0.751-6.253,1.766-9.032,3.414c-2.422,1.436-5.238,3.676-6.368,6.353c-1.193,2.826-1.621,6.205-2.106,9.228
				c-2.247,14.013-4.153,28.03-5.861,42.127c-2.412,19.912-4.379,39.879-5.899,59.879"/>
			<g>
				<path style="fill:#F7B385;" d="M236.526,187.845c1.681,2.637,3.861,4.955,6.392,6.792c1.405,1.02,3.06,1.926,4.784,1.721
					c1.807-0.215,3.24-1.59,4.422-2.974c2.138-2.501,3.945-5.284,5.365-8.252c1.531-3.201,0.939-5.913,1.077-9.379
					c0.164-4.112-0.631-8.529-1.801-12.456c-0.755-2.533-1.799-5.016-3.417-7.106c-3.165-4.09-8.63-5.875-13.317-3.129
					c-3.891,2.28-4.587,5.49-3.954,9.679c0.363,2.405-0.219,5.029-0.45,7.438c-0.518,5.388-2.506,11.813,0.334,16.734
					C236.142,187.228,236.33,187.538,236.526,187.845z"/>
				<g>
					<path style="fill:#2F5F7D;" d="M255.528,185.364c-1.908,3.957-4.696,8.069-7.849,11.11c2.82,1.779,4.937,4.64,5.813,7.857
						c2.236-1.67,3.595-4.241,4.775-6.77c1.636-3.505,3.085-7.147,3.627-10.977c0.359-2.539,0.158-4.92-0.18-7.439
						c-0.154-1.145-0.573-2.014-1.177-3.019c-0.339-0.564-0.707-1.111-1.102-1.637c-0.186-0.248-1.066-1.036-1.073-1.309
						c0.096,4.169-0.983,8.318-2.783,12.08C255.561,185.295,255.545,185.329,255.528,185.364z"/>
					<path style="fill:#2F5F7D;" d="M231.246,178.671c-0.44,2.533,0.115,5.311,0.744,7.735c1.754,6.761,5.264,13.057,10.092,18.104
						c0.566-3.241,2.493-6.222,5.217-8.068c-2.936-3.072-5.5-6.043-7.297-9.934c-2.276-4.928-3.846-10.181-4.647-15.55
						c-1.818,1.917-3.224,4.316-3.921,6.871C231.357,178.107,231.295,178.387,231.246,178.671z"/>
				</g>
				<path style="fill:#E0764C;" d="M241.972,180.715c1.584,1.261,3.548,2.051,5.548,1.894c2.085-0.164,3.992-1.333,5.425-2.855
					c1.433-1.523,2.448-3.385,3.38-5.256c0.71-1.424,1.396-2.928,1.395-4.519c-0.001-1.675-0.764-3.252-1.62-4.692
					c-1.359-2.287-3.042-4.449-5.274-5.898c-2.677-1.738-5.661-1.766-8.702-1.443c-2.775,0.294-4.73,2.377-5.926,4.753
					c-1.602,3.183-0.25,7.17,0.93,10.327c0.888,2.374,1.957,4.739,3.675,6.603C241.162,180.017,241.554,180.382,241.972,180.715z"/>
			</g>
			<g>
				<path style="fill:#F7B385;" d="M224.641,145.63c0.981,6.451,3.414,12.683,7.599,17.649c5.369,6.371,13.848,10.36,22.102,9.224
					c4.946-0.68,9.603-3.388,12.717-7.279c3.679-4.597,3.899-10.332,4.84-15.914c0.822-4.88,1.406-9.765,1.65-14.707
					c0.221-4.499-0.921-9.699-2.234-14.011c-1.365-4.483-3.65-8.795-7.195-11.86c-3.571-3.087-8.251-4.736-12.958-5.087
					c-4.707-0.351-9.446,0.535-13.911,2.065c-2.971,1.018-5.883,2.347-8.285,4.37c-4.505,3.795-6.792,9.754-7.139,15.633
					c-0.215,3.642,0.249,7.289,1.065,10.835c0.41,1.781,1.07,3.511,1.465,5.289C224.631,143.07,224.448,144.358,224.641,145.63z"/>
				<path d="M230.174,138.19c0.63,1.674,0.962,3.444,1.386,5.183c0.726,2.978,1.875,6.19,5.206,7.016
					c2.477,0.615,4.939-0.79,7.322-1.7c3.199-1.223,6.724-1.59,10.109-1.052c3.156,0.501,6.184,1.769,9.376,1.918
					c2.592,0.121,5.632-0.749,7.154-2.999c0.949-1.404,1.01-3.191,1.283-4.818c0.334-1.992,0.669-3.984,1.003-5.976
					c0.027-0.16,0.089-0.356,0.249-0.378c0.197-0.027,0.298,0.226,0.327,0.423c1.076,7.131,1.418,14.908-0.219,21.978
					c-1.328,5.735-4.746,11.263-10.078,13.816c-4.239,2.03-9.161,1.992-13.85,1.6c-4.189-0.35-8.441-0.974-12.202-2.841
					c-5.844-2.901-9.937-8.601-12.007-14.762c-0.539-1.603-0.954-3.246-1.268-4.907c-0.317-1.677-0.3-3.463-0.675-5.115
					c-0.728-3.204-0.682-6.619-0.391-9.901c0.072-0.811,0.207-1.702,0.826-2.232c0.848-0.726,2.175-0.407,3.111,0.201
					c1.552,1.008,2.599,2.65,3.272,4.374C230.131,138.076,230.153,138.133,230.174,138.19z"/>
				<g>
					<g>
						<g>
							<path style="fill:#E0764C;" d="M251.71,156.958c-2.065-0.013-4.13-0.076-6.192-0.188c-0.596-0.032-1.202-0.068-1.78,0.078
								c-0.578,0.145-1.135,0.504-1.365,1.054c-0.357,0.854,0.168,1.816,0.777,2.513c2.358,2.698,6.046,4.012,9.553,3.987
								c3.944-0.029,9.73-1.463,10.302-6.113c0.057-0.467,0.035-0.999-0.303-1.326c-0.355-0.342-0.911-0.329-1.403-0.296
								C258.107,156.882,254.908,156.979,251.71,156.958z"/>
						</g>
						<path style="fill:none;stroke:#000000;stroke-linecap:round;stroke-linejoin:round;stroke-miterlimit:10;" d="
							M245.705,158.934c3.841,1.932,8.557,2.025,12.471,0.246"/>
					</g>
					<path style="fill:#E0764C;" d="M251.587,134.805c0.325-1.014,0.994-2.137,2.059-2.166c0.726-0.02,1.371,0.518,1.719,1.156
						c0.348,0.638,0.497,1.365,0.622,2.081c0.348,1.983,0.633,3.966,2.322,5.544c0.66,0.616,1.048,1.489,1.341,2.343
						c0.293,0.854,0.269,1.885-0.328,2.562c-0.499,0.566-1.316,0.78-2.065,0.686c-0.749-0.094-1.439-0.457-2.058-0.889
						C251.354,143.437,250.194,139.152,251.587,134.805z"/>
					<g>
						<path style="fill:none;stroke:#000000;stroke-linecap:round;stroke-linejoin:round;stroke-miterlimit:10;" d="
							M245.384,129.668c-0.649-1.607-1.009-2.548-5.459-2.243c-2.044,0.14-3.936,1.491-4.891,3.303"/>
						<path d="M243.026,138.913c0.224,0.678,0.671,1.402,1.381,1.482c0.653,0.074,1.228-0.44,1.583-0.992
							c0.591-0.92,0.837-2.056,0.68-3.139c-0.172-1.182-1.695-3.48-3.119-2.343C242.317,134.908,242.601,137.626,243.026,138.913z"
							/>
					</g>
					<g>
						<path style="fill:none;stroke:#000000;stroke-linecap:round;stroke-linejoin:round;stroke-miterlimit:10;" d="
							M259.099,130.554c0.846-0.912,1.808-1.747,2.947-2.246c1.139-0.499,2.479-0.633,3.628-0.154
							c1.148,0.479,2.039,1.64,2.001,2.883"/>
						<path d="M263.447,139.107c0.115,0.4,0.273,0.795,0.539,1.114c0.266,0.319,0.654,0.555,1.07,0.564
							c0.814,0.018,1.396-0.781,1.708-1.533c0.362-0.869,0.574-1.815,0.497-2.754c-0.076-0.939-0.458-1.869-1.147-2.511
							C263.467,131.521,263.041,137.69,263.447,139.107z"/>
					</g>
				</g>
				<g>
					<path style="fill:#F7B385;" d="M222.089,135.362c-1.056-0.558-2.305-0.848-3.46-0.542c-1.103,0.292-2.021,1.108-2.605,2.089
						c-0.584,0.981-0.861,2.117-0.988,3.252c-0.323,2.898,0.339,5.946,2.079,8.286c1.74,2.34,4.598,3.884,7.512,3.78
						c0.912-0.033,1.882-0.255,2.499-0.927c0.644-0.701,0.763-1.727,0.786-2.678c0.067-2.798-0.446-5.605-1.477-8.206
						C225.513,138.095,224.333,136.549,222.089,135.362z"/>
					<g>
						<path style="fill:none;stroke:#000000;stroke-linecap:round;stroke-linejoin:round;stroke-miterlimit:10;" d="
							M221.943,140.311c1.387,2.342,2.112,5.072,2.069,7.794"/>
						<path style="fill:none;stroke:#000000;stroke-linecap:round;stroke-linejoin:round;stroke-miterlimit:10;" d="
							M219.708,143.521c1.206,0.689,2.559,1.285,3.919,1.003"/>
					</g>
				</g>
			</g>
			<g>
				<g>
					<g>
						<path style="fill:#F2594B;" d="M252.071,232.539l-3.126-37.916h26.651l-4.1,37.916c-1.245,0.931-4.161,2.842-8.333,3.196
							C257.353,236.228,253.176,233.353,252.071,232.539z"/>
						<path style="fill:#333333;" d="M278.382,199.07c-3.124,1.329-8.177,3.022-14.587,3.233
							c-7.816,0.257-13.919-1.811-17.268-3.233c0-2.181,0-4.363,0-6.544c2.848-1.433,8.712-3.906,16.479-3.785
							c7.155,0.111,12.57,2.372,15.376,3.785C278.382,194.707,278.382,196.889,278.382,199.07z"/>
						<path d="M275.375,194.281c-2.534,1.078-6.633,2.451-11.833,2.622c-6.341,0.209-11.291-1.469-14.008-2.622
							c0-1.77,0-3.539,0-5.309c2.31-1.162,7.068-3.168,13.368-3.07c5.805,0.09,10.197,1.924,12.473,3.07
							C275.375,190.741,275.375,192.511,275.375,194.281z"/>
						<path style="fill:#FFFFFF;" d="M266.422,190.595c0.113-0.017,0.225-0.035,0.338-0.052c-0.42-3.232-0.847-6.462-1.281-9.692
							c-0.578-4.306-1.169-8.611-1.772-12.914c-0.301-2.152-0.606-4.303-0.913-6.453c-0.126-0.884-0.094-1.373-0.97-1.723
							c-0.798-0.319-1.674-0.278-2.51-0.412c-0.424-0.068-5.109-0.536-5.108-0.446c0.001,0.735-0.112,1.399,0.033,2.13
							c2.26,0.611,4.588,0.972,6.927,1.076c0.565,4.306,1.147,8.609,1.734,12.912c0.587,4.305,1.18,8.609,1.758,12.915
							c0,0.898,0.282,1.984,0.487,2.859C265.57,190.727,265.996,190.661,266.422,190.595z"/>
					</g>
				</g>
				<g>
					<path style="fill:#F7B385;" d="M249.928,212.92c1.175-0.431,2.518-0.558,3.763-0.808c2.733-0.549,5.277-1.83,7.563-3.425
						c0.747-0.521,1.65-1.106,2.5-0.777c0.765,0.296,1.09,1.216,1.102,2.035c0.028,1.813-1.024,3.506-2.403,4.683
						c-1.379,1.177-3.065,1.921-4.725,2.649c0.239-0.105,0.981,0.123,1.262,0.142c4.896,0.328,10.294-1.824,14.05-4.876
						c0.342-0.278,0.716-0.581,1.156-0.579c0.702,0.003,1.145,0.761,1.305,1.444c0.323,1.381,0.081,2.885-0.661,4.093
						c0.783,1.021,1.144,2.357,0.982,3.634c-0.163,1.277-0.847,2.48-1.862,3.272c0.762,0.624,1.138,1.685,0.938,2.649
						c-0.199,0.964-0.966,1.789-1.913,2.059c0.844,0.261,1.104,1.429,0.706,2.218c-0.398,0.789-1.222,1.26-2.025,1.63
						c-1.851,0.853-3.74,1.184-5.686,1.659c-2.153,0.525-4.396,0.654-6.602,0.486c-3.665-0.278-7.227-1.34-10.679-2.601
						c-1.224-0.447-2.523-0.987-3.213-2.092c-0.607-0.973-0.553-2.073-0.486-3.169c0.057-0.923-0.128-1.788-0.031-2.717
						c0.268-2.566,0.83-5.111,1.626-7.564c0.358-1.102,0.791-2.228,1.628-3.029C248.718,213.469,249.299,213.15,249.928,212.92z"/>
					<g>
						<path style="fill:#E0764C;" d="M261.501,220.996c-0.325-0.041-0.656-0.091-0.976-0.023c-0.32,0.068-0.632,0.285-0.71,0.602
							c-0.086,0.35,0.14,0.717,0.447,0.905c0.307,0.188,0.677,0.235,1.036,0.265c3.779,0.322,7.642-0.746,10.767-2.883
							c0.713-0.488,1.737-1.12,2.195-1.847c-0.828,0.2-1.613,0.865-2.377,1.238c-1.06,0.518-2.17,0.933-3.309,1.241
							C266.277,221.115,263.861,221.297,261.501,220.996z"/>
						<path style="fill:#E0764C;" d="M262.142,226.382c-0.505-0.032-1.165,0.028-1.297,0.536c-0.083,0.318,0.123,0.657,0.399,0.819
							c0.276,0.162,0.605,0.187,0.921,0.201c4.173,0.176,8.338-1.105,11.795-3.529c-0.629,0.511-1.673,0.693-2.432,0.916
							c-1.021,0.3-2.059,0.54-3.106,0.72C266.35,226.399,264.239,226.515,262.142,226.382z"/>
						<path style="fill:#E0764C;" d="M263.208,230.109c-0.357-0.002-0.713-0.011-1.069-0.025c-0.154-0.006-0.312-0.013-0.457,0.038
							c-0.324,0.113-0.368,0.51-0.144,0.745c0.218,0.228,0.708,0.307,1,0.379c0.842,0.209,1.723,0.237,2.584,0.155
							c1.225-0.117,2.417-0.451,3.601-0.784c1.341-0.376,2.801-0.637,4.066-1.232c0.52-0.244,0.359-0.31-0.159-0.284
							c-0.811,0.041-1.615,0.159-2.42,0.257c-0.82,0.1-1.631,0.348-2.462,0.461C266.244,230.022,264.725,230.12,263.208,230.109z"/>
					</g>
				</g>
				<g>
					<path style="fill:#F7B385;" d="M189.547,244.001c0.505,2.158,1.413,4.17,2.885,5.846c4.54,5.166,11.652,4.842,17.818,3.572
						c7.492-1.543,14.909-5.399,21.561-9.043c6.553-3.59,12.833-7.649,19.1-11.711c-0.766,0.496-3.157-4.186-3.384-4.755
						c-0.562-1.413-0.803-3.062-0.978-4.564c-0.05-0.434-0.492-4.035-0.126-4.175c-11.548,4.416-23.275,8.364-35.143,11.83
						c2.708-6.95,5.378-13.999,6.972-21.319c0.873-4.008,1.367-8.098,1.478-12.199c0.057-2.106,0.012-4.214-0.134-6.315
						c-0.049-0.696-0.994-5.296-0.639-5.616c-7.243,6.533-13.54,14.109-18.67,22.403c-5.085,8.221-9.761,17.422-10.995,27.103
						C188.918,238.001,188.876,241.131,189.547,244.001z"/>
					<path style="fill:#E0764C;" d="M203.089,237.432c-0.225,0.295-0.445,0.606-0.537,0.965c-0.092,0.359-0.031,0.78,0.242,1.031
						c0.278,0.256,0.712,0.279,1.068,0.152c0.356-0.127,0.651-0.38,0.933-0.632c2.793-2.482,5.121-5.487,6.88-8.78
						c-0.662,0.374-1.177,0.988-1.816,1.412c-0.831,0.552-1.662,1.099-2.46,1.699C205.8,234.482,204.307,235.84,203.089,237.432z"/>
					<path style="fill:#E0764C;" d="M198.937,244.859c1.212,1.099,1.836,2.812,1.615,4.432c-0.617-0.4-0.756-1.221-1.007-1.913
						c-0.698-1.92-2.761-3.247-4.797-3.086c-0.164,0.013-0.333,0.034-0.492-0.008c-0.616-0.165-0.204-0.573,0.13-0.662
						c0.467-0.124,1.131-0.09,1.612-0.044C197.078,243.682,198.13,244.128,198.937,244.859z"/>
				</g>
				<path style="fill:#2F5F7D;" d="M190.236,223.72c4.117,2.388,8.806,3.77,13.556,4.044c2.118,0.122,4.303,0.033,6.41-0.021
					c1.355-0.035,4.608-0.548,5.361-1.851c1.871-3.24,3.029-7.192,4.018-10.778c2.709-9.819,3.159-20.268,1.208-30.27
					c-0.647-3.317-5.959,2.079-7.049,2.999c-2.795,2.358-5.466,4.862-8,7.499c-5.068,5.273-9.588,11.072-13.457,17.278
					c-1.277,2.048-2.482,4.14-3.613,6.272c-0.416,0.784-0.834,1.654-0.653,2.523c0.208,0.998,1.132,1.663,2.009,2.181
					C190.095,223.638,190.165,223.679,190.236,223.72z"/>
			</g>
		</g>
		<g>
			<g>
				<g>
					<path style="fill:#8CC63F;" d="M343.007,268.048c4.529-0.348,8.573-2.841,12.415-5.265
						c10.961-6.915,21.923-13.829,32.884-20.744c6.646-4.192,13.672-8.82,16.725-16.06c0.721-1.71,1.188-3.677,0.502-5.401
						c-0.953-2.395-3.76-3.469-6.322-3.749c-5.813-0.635-11.584,1.424-16.846,3.976c-8.709,4.225-16.648,9.853-24.542,15.454
						c-7.6,5.393-15.341,10.938-21.276,18.213c-1.88,2.305-5.312,5.938-3.969,9.239C334.02,267.255,339.717,268.301,343.007,268.048
						z"/>
					<path style="fill:#69952F;" d="M371.616,239.802c-3.183,5.448-5.452,11.378-7.502,17.345c5.064-1.912,9.498-5.153,13.862-8.356
						c0.587-0.431,1.184-0.871,1.613-1.46c0.599-0.822,0.814-1.852,1.037-2.844c1.736-7.736,4.778-15.176,8.96-21.911
						c-0.486,0.796-2.116,1.651-2.874,2.219c-0.719,0.538-1.432,1.011-2.247,1.389c-1.705,0.791-3.062,1.722-4.463,3.003
						C376.66,232.245,373.896,235.9,371.616,239.802z"/>
					<path style="fill:#69952F;" d="M351.24,253.451c1.279-4.284,1.741-8.811,1.353-13.265c0.031,0.352-2.308,1.71-2.585,2.197
						c-0.477,0.839,0.001,2.171,0.126,3.078C350.503,248.124,350.872,250.787,351.24,253.451z"/>
				</g>
				<g>
					<path style="fill:#8CC63F;" d="M348.021,237.559c0.152,0.468,0.302,0.936,0.45,1.405c1.819,5.759,2.73,13.637,1.181,19.565
						c-1.212,4.638-6.528,11.868-12.435,9.719c-4.775-1.737-7.044-7.842-8.569-12.192c-2.383-6.798-3.724-13.722-5.186-20.788
						c-3.19-15.413-6.379-30.825-9.569-46.238c1.632-0.428,12.193-1.292,10.378-4.732
						C333.238,201.284,342.072,219.22,348.021,237.559z"/>
					<path style="fill:#A3D165;" d="M314.33,200.042c0.284,0.795,0.617,1.608,1.24,2.177c0.87,0.795,2.139,0.965,3.318,0.941
						c4.785-0.098,9.412-2.984,11.604-7.238c0.51-0.99,0.902-2.091,0.786-3.199c-0.13-1.242-0.872-2.319-1.467-3.417
						c-0.781-1.443-1.334-3-2.104-4.448c-0.771-1.448-1.809-2.825-3.264-3.583c-1.524-0.794-3.345-0.822-5.033-0.501
						c-1.541,0.293-3.054,0.875-4.26,1.877C310.286,186.694,312.543,195.044,314.33,200.042z"/>
					<path style="fill:#69952F;" d="M340.385,260.773c1.039-0.079,2.123,0.237,2.892,0.94c0.769,0.704,1.185,1.806,0.974,2.827
						c-0.651-1.109-1.764-1.937-3.014-2.24c-1.332-0.323-2.503,0.019-3.697,0.582C337.03,261.463,339.422,260.846,340.385,260.773z"
						/>
				</g>
				<g>
					<path style="fill:#753C17;" d="M329.701,168.953c-0.97,0.905-1.331,2.338-1.749,3.597c0.416,1.023,1.604,1.523,2.706,1.584
						c1.102,0.061,2.197-0.208,3.301-0.222c3.095-0.04,5.83,1.882,8.32,3.72c0.405,0.299,0.818,0.606,1.102,1.021
						c0.284,0.416,0.42,0.967,0.221,1.43c-0.215,0.5-0.775,0.783-1.318,0.82c-0.543,0.037-1.078-0.128-1.594-0.3
						c-1.744-0.582-3.453-1.272-5.113-2.065c-0.749-0.358-1.547-0.747-2.369-0.63c-1.132,0.162-1.903,1.22-2.408,2.247
						c-0.815,1.658-1.294,3.469-2.156,5.104c-1.192,2.262-3.51,4.149-5.761,5.291c-0.212,0.107-0.443,0.213-0.678,0.178
						c-0.596-0.089-0.701-0.894-0.659-1.494c0.377-5.403,0.36-10.832-0.049-16.233c-0.16-2.108-0.373-4.276,0.252-6.296
						c0.486-1.57,1.555-2.869,2.831-3.912c0.631-0.515,1.312-0.968,1.999-1.36"/>
					<g>
						<path style="fill:#B5852A;" d="M328.426,172.775c-2.168-1.016-4.185-2.789-3.518-5.451c0.286-1.142,1.169-2.149,2.305-2.459
							c1.138-0.31,2.337,0.074,3.453,0.455c1.593,0.544,3.187,1.087,4.78,1.63c0.403,0.137,0.816,0.28,1.143,0.553
							c0.327,0.272,0.555,0.707,0.461,1.122c-0.299-0.161-0.61-0.326-0.948-0.345c-0.339-0.019-0.714,0.152-0.818,0.475
							c-0.312,0.97,2.829,2.32,3.475,2.678c1.661,0.922,3.346,1.801,5.054,2.635c3.329,1.625,6.742,3.081,10.221,4.354
							c3.05,1.117,6.104,2.267,8.826,4.086c0.783,0.523,1.63,1.402,1.259,2.267c-0.211,0.491-0.772,0.757-1.307,0.775
							c-0.534,0.018-1.053-0.164-1.556-0.344c-5.634-2.013-11.268-4.027-16.901-6.04c-2.713-0.969-5.42-1.998-8.161-2.871
							C333.539,175.451,330.962,173.964,328.426,172.775z"/>
						<path style="fill:#F2A10A;" d="M348.573,178.657c0.851,0.197,1.725,0.616,2.261,1.273c0.654,0.802,1.54,1.068,2.556,1.132
							c1.026,0.064,2.147,0.038,2.954,0.674c0.945,0.743,1.096,2.129,0.892,3.314c-0.204,1.185-0.681,2.327-0.707,3.529
							c-0.01,0.477,0.057,0.97,0.302,1.38c0.245,0.41,0.694,0.719,1.171,0.698c0.786-0.035,1.32-0.889,2.095-1.019
							c0.703-0.118,1.384,0.43,1.647,1.092c0.262,0.663,0.199,1.406,0.092,2.111c-0.107,0.705-0.252,1.42-0.142,2.124
							c0.088,0.563,0.509,1.193,1.07,1.095c0.414-0.072,0.652-0.501,0.823-0.885c1.116-2.512,1.882-5.18,2.269-7.902
							c0.327-2.306-0.296-4.335-2.54-5.393c-2.126-1.002-4.113-2.368-6.22-3.433c-4.388-2.219-8.927-4.215-12.948-7.081
							C313.131,159.915,334.131,175.309,348.573,178.657z"/>
						<path style="fill:#F2594B;" d="M359.473,180.152c0.167,0.242,0.299,0.584,0.112,0.811c-0.17,0.206-0.49,0.174-0.749,0.112
							c-1.416-0.339-2.74-1.062-3.78-2.081c-0.184-0.18-0.364-0.379-0.431-0.627c-0.067-0.248,0.018-0.555,0.251-0.663
							c0.355-0.164,0.694,0.165,1.031,0.22c0.186,0.03,0.319,0.006,0.497,0.057c0.236,0.068,0.476,0.221,0.695,0.33
							C358,178.759,358.893,179.309,359.473,180.152z"/>
						<path style="fill:#F2594B;" d="M339.486,171.989c0.165,0.164,0.326,0.34,0.422,0.553c0.095,0.212,0.117,0.47,0.005,0.674
							c-0.196,0.356-0.686,0.407-1.089,0.351c-1.268-0.175-2.365-0.944-3.383-1.72c-0.397-0.302-0.872-0.691-0.828-1.247
							c0.039-0.492,0.533-0.725,0.975-0.786c0.727-0.1,1.708,0.591,2.296,0.938C338.466,171.096,339.006,171.512,339.486,171.989z"
							/>
						<path style="fill:#F2594B;" d="M351.391,177.303c0.202,0.172,0.417,0.405,0.362,0.665c-0.065,0.306-0.446,0.41-0.759,0.428
							c-1.623,0.096-3.276-0.519-4.442-1.652c-0.234-0.227-0.46-0.502-0.47-0.828c-0.036-1.166,1.747-0.614,2.335-0.385
							C349.497,175.952,350.507,176.553,351.391,177.303z"/>
						<path style="fill:#F2594B;" d="M345.084,172.663c0.221,0.205,0.436,0.427,0.559,0.702c0.124,0.275,0.141,0.614-0.025,0.866
							c-0.143,0.217-0.4,0.338-0.658,0.37c-0.258,0.031-0.519-0.017-0.771-0.078c-1.072-0.258-2.147-0.798-2.694-1.756
							c-0.185-0.324-0.301-0.73-0.142-1.068c0.143-0.305,0.482-0.48,0.817-0.518C343.29,171.052,344.319,171.953,345.084,172.663z"
							/>
					</g>
					<g>
						<g>
							<path style="fill:#A1633A;" d="M324.806,179.972c-0.106-4.12-1.429-8.125-3.187-11.853c1.676-1.252,3.07-2.879,4.05-4.727
								c1.768,2.437,4.035,4.51,6.62,6.053c0.655,0.391,1.355,0.756,2.115,0.816c0.76,0.06,1.596-0.254,1.947-0.932
								c0.556-1.073-0.307-2.308-1.116-3.206c-1.159-1.286-2.318-2.571-3.477-3.857c-1.173-1.301-2.462-2.672-4.175-3.044
								c-1.841-0.399-3.697,0.454-5.388,1.285c-2.649,1.301-5.446,2.736-6.939,5.282c-1.281,2.183-1.391,4.84-1.359,7.371
								c0.061,4.849,0.517,9.682,0.974,14.51c0.195,2.068,1.028,3.651,3.227,4.034c1.27,0.222,2.581,0.029,3.491-0.92
								C324.081,188.187,324.893,183.391,324.806,179.972z"/>
							<path style="fill:#A1633A;" d="M329.984,160.537c1.317,0.092,2.579,0.789,3.359,1.854c0.483-0.598,1.438-0.617,2.104-0.233
								c0.666,0.384,1.1,1.065,1.464,1.742c0.41-0.497,1.204-0.51,1.772-0.205c0.568,0.304,0.963,0.846,1.338,1.37
								c-0.066,0.168,0.975,1.362,1.111,1.551c0.887,1.238,1.706,2.506,2.521,3.793c0.207,0.326,0.421,0.716,0.286,1.077
								c-0.1,0.267-0.37,0.436-0.644,0.512c-0.767,0.213-1.66-0.231-1.953-0.971c0.06,0.152-0.721,0.561-0.839,0.584
								c-0.303,0.059-0.685,0.069-0.991,0.031c-0.791-0.1-1.514-0.633-1.843-1.36c-0.227,0.585-1.001,0.797-1.596,0.601
								c-0.596-0.197-1.043-0.687-1.43-1.181s-0.759-1.023-1.29-1.356c-0.655-0.411-1.398-0.12-2.006-0.519
								c-0.269-0.176-0.48-0.425-0.688-0.67c-0.964-1.137-1.928-2.274-2.891-3.412c-0.413-0.487-1.55-1.829-0.922-2.457
								C327.492,160.639,329.131,160.477,329.984,160.537z"/>
						</g>
						<g>
							<path style="fill:#753C17;" d="M335.143,167.175c0.271,0.548,0.52,1.13,0.588,1.743c0.031,0.279,0.028,0.546-0.085,0.808
								c-0.118,0.273-0.326,0.377-0.501,0.589c0.207-0.249,0.326-0.57,0.332-0.894c0.007-0.408-0.206-0.778-0.33-1.155
								c-0.152-0.46-0.356-0.909-0.565-1.345c-0.415-0.867-0.909-1.694-1.454-2.485c-0.963-1.399-2.08-2.685-3.223-3.941
								c0.191-0.093,0.427-0.047,0.608,0.065c0.181,0.112,0.319,0.28,0.452,0.446C332.527,162.944,334.039,164.945,335.143,167.175z
								"/>
							<path style="fill:#753C17;" d="M337.324,168.583c-0.922-2.27-2.457-4.23-3.971-6.156c1.053,0.587,1.726,1.662,2.332,2.705
								c0.569,0.978,1.119,1.967,1.65,2.966c0.197,0.371,0.393,0.748,0.488,1.157c0.094,0.409,0.076,0.86-0.137,1.221
								c-0.088-0.302-0.012-0.617-0.065-0.932C337.564,169.209,337.44,168.9,337.324,168.583z"/>
							<path style="fill:#753C17;" d="M340.613,169.041c-1.06-1.809-2.315-3.503-3.738-5.043c0.513,0.24,0.905,0.676,1.265,1.113
								c1.081,1.313,2.017,2.744,2.794,4.256c0.18,0.351,0.533,0.848,0.544,1.248c-0.238-0.024-0.301-0.45-0.375-0.628
								C340.966,169.659,340.792,169.348,340.613,169.041z"/>
						</g>
					</g>
				</g>
			</g>
			<g>
				<g>
					<path style="fill:#8CC63F;" d="M381.568,234.593c-0.416,1.321-0.776,2.653-1.081,3.985c-0.962,4.206-1.373,8.541-1.181,12.853
						c0.182,4.094,0.418,8.778,1.441,12.745c1.347,5.225,4.596,9.728,6.765,14.669c1.969,4.486,3.031,9.364,3.136,14.261
						c0.117,5.397-2.64,10.689,0.91,15.473c3.599,4.85,8.988,9.047,13.801,12.619c6.506,4.829,13.628,8.772,21.003,12.105
						c6.399,2.892,12.992,5.334,19.647,7.567c3.332,1.118,6.681,2.182,10.036,3.225c0.62,0.193,1.561,0.714,2.168,0.45
						c0.553-0.241,1.242-1.447,1.668-1.906c1.181-1.271,2.429-2.479,3.568-3.789c1.351-1.555,2.978-3.632,3.459-5.686
						c0.44-1.879-1.191-4.905-1.782-6.716c-1.57-4.807-3.257-9.576-5.053-14.303c-1.299-3.415-2.986-6.783-4.102-10.255
						c-0.384-1.195-0.335-2.516-0.602-3.755c-0.362-1.677-0.652-3.368-0.847-5.072c-1.668-14.624,3.441-29.254,2.891-43.962
						c-0.421-11.267-8.585-20.164-18.075-25.369c-9.004-4.939-19.296-6.981-29.486-8.26c-5.676-0.712-11.866-1.515-17.058,1.482
						c-3.036,1.752-4.863,4.352-6.619,7.29C384.234,227.492,382.704,230.984,381.568,234.593z"/>
				</g>
				<path style="fill:#69952F;" d="M463.207,319.653c-1.448-3.249-2.895-6.497-4.343-9.746c-0.907-2.035-1.814-4.071-2.721-6.106
					c-0.772-1.733-1.845-3.171-2.886-4.764c-2.099-3.211-4.563-6.124-6.754-9.256c-0.766-1.095-0.856-2.283-1.184-3.554
					c-0.499-1.933-0.827-3.855-0.846-5.857c-0.077-8.274-1.584-16.58-4.879-24.17c-0.712-1.641-1.745-3.904-3.522-4.606
					c-0.397,0.667-0.321,1.897-0.472,2.658c-0.231,1.167-0.457,2.334-0.663,3.505c-0.42,2.384-0.779,4.779-1.076,7.181
					c-0.579,4.679-0.917,9.385-1.033,14.098c-0.071,2.868-0.109,5.74,0.035,8.607c0.133,2.638,0.667,5.197,0.398,7.795
					c-0.592,5.713-0.025,11.859,1.653,17.347c0.905,2.961,2.207,5.81,3.916,8.394c0.832,1.259,1.761,2.454,2.787,3.562
					c0.853,0.921,1.937,1.577,2.741,2.502c1.974,2.272,3.648,4.473,6.138,6.256c2.285,1.636,4.842,2.895,7.541,3.681
					c1.254,0.365,2.579,0.633,3.862,0.387c1.951-0.374,3.543-1.939,4.281-3.783c0.739-1.844,0.71-3.924,0.278-5.863
					c-0.432-1.939-1.245-3.768-2.054-5.583C464.005,321.443,463.606,320.548,463.207,319.653z"/>
			</g>
			<g>
				<g>
					<path style="fill:#A1633A;" d="M425.688,191.6c0.426,8.045,0.852,16.09,1.277,24.135c0.11,2.076,0.22,4.152,0.33,6.228
						c0.076,1.443,0.708,3.676-0.325,4.742c-2.031,2.097-6.173,1.76-8.783,1.605c-2.741-0.163-5.49-0.327-8.189-0.832
						c-2.283-0.427-4.617-1.153-6.279-2.776c-1.276-1.246-2.025-3.106-1.756-4.891c0.271-1.8,0.082-3.493,0.144-5.344
						c0.157-4.706,0.441-9.407,0.85-14.097C410.913,198.472,419.111,196.465,425.688,191.6z"/>
					<path style="fill:#753C17;" d="M402.295,210.517c-0.043,0.735-0.07,1.535,0.355,2.136c0.482,0.683,1.391,0.894,2.222,0.983
						c1.408,0.15,2.837,0.098,4.229-0.16c3.256-0.602,6.287-2.354,8.434-4.874c1.691-1.985,2.821-4.396,3.598-6.885
						c0.777-2.489,1.215-5.069,1.652-7.639c-7.406-0.184-14.804,3.471-19.159,9.465c-0.767,1.056-1.023,1.75-1.099,3.042
						C402.451,207.895,402.373,209.206,402.295,210.517z"/>
				</g>
				<path style="fill:#A3D165;" d="M430.766,212.39c0.444,1.859,0.773,3.754,0.873,5.665c0.081,1.552,0.247,3.816-0.477,5.226
					c-1.333,2.595-4.852,4.406-7.467,5.307c-2.956,1.018-6.11,1.332-9.235,1.43c-3.079,0.097-6.22-0.019-9.132-1.024
					c-2.912-1.006-5.595-3.012-6.82-5.838c-1.398-3.227-0.805-7.02-0.309-10.384c0.17-1.155,0.48-2.452,1.599-3.059
					c0.782-0.425,1.789-0.391,2.661-0.14c0.926,0.267,1.766,0.757,2.636,1.16c0.859,0.397,1.781,0.606,2.718,0.796
					c1.979,0.401,4.001,0.588,6.019,0.565c4.037-0.048,8.069-0.938,11.73-2.648c0.79-0.369,1.627-0.786,2.491-0.663
					c0.794,0.112,1.467,0.679,1.892,1.36C430.369,210.821,430.58,211.61,430.766,212.39z"/>
			</g>
			<g>
				<path style="fill:#A1633A;" d="M428.946,190.872c-4.699,9.353-16.265,15.567-26.567,15.496
					c-6.342-0.044-13.187-1.618-16.001-7.865c-1.393-3.093-1.748-6.543-1.918-9.93c-0.064-1.285-0.103-2.572-0.115-3.859
					c-0.066-7.144,0.69-14.33,2.589-21.229c0.942-3.424,2.167-6.773,3.706-9.974c0.559-1.163,1.049-2.504,2.164-3.239
					c1.144-0.755,2.485-1.291,3.665-2.005c3.065-1.855,6.583-2.727,10.141-2.91c1.56-0.08,3.125-0.031,4.679,0.115
					c3.554,0.334,7.095,1.178,10.253,2.844c6.309,3.328,10.635,9.825,12.145,16.797c0.973,4.492,0.851,9.171-0.062,13.663
					C432.737,183.133,430.925,186.933,428.946,190.872z"/>
				<g>
					<path style="fill:#333333;" d="M421.584,167.094c1.146,6.984,5.085,13.629,12.516,14.488c1.729,0.2,3.448-0.189,4.75-1.35
						c1.3-1.16,2.645-1.943,3.59-3.484c0.902-1.471,1.429-3.141,1.819-4.821c1.015-4.376,1.149-8.954,0.391-13.382
						c-0.38-2.222-1.03-4.495-2.539-6.171c-1.237-1.373-2.962-2.232-4.746-2.714c-3.261-0.879-6.866-0.54-9.826,1.086
						C421.553,154.034,420.57,160.916,421.584,167.094z"/>
					<path d="M423.435,155.143c-0.171,0.123,3.643,3.257,4.071,3.477c1.385,0.713,3.082,1.098,4.617,1.311
						c3.564,0.494,7.351-0.214,10.316-2.309c3.727-2.635,5.868-7.538,4.782-11.972c-1.086-4.433-5.627-7.892-10.154-7.31
						c1.289-8.125-4.114-16.784-11.978-19.198c-7.864-2.414-17.195,1.723-20.686,9.172c-3.809-4.75-10.813-6.63-16.489-4.425
						c-5.676,2.205-9.574,8.32-9.177,14.396c-4.552,0.658-8.613,3.999-10.135,8.339c-1.522,4.34-0.437,9.486,2.708,12.842
						c-2.495-0.343-4.904,1.829-5.253,4.324c-0.348,2.494,1.061,5.019,3.121,6.468s4.661,1.95,7.179,1.923
						c2.152-0.023,4.323-0.428,6.294-1.306c1.003-0.447,2.045-0.967,2.825-1.759c0.677-0.688,0.591-1.609,0.836-2.503
						c0.731-2.669,1.462-5.339,2.193-8.008c0.029-0.089,1.808-0.073,1.97-0.089c2.974-0.282,5.996-0.93,8.545-2.558
						c1.727-1.104,3.138-2.622,4.185-4.379c2.15,3.154,5.606,5.386,9.365,6.048C416.326,158.289,420.337,157.372,423.435,155.143z"
						/>
				</g>
				<g>
					<path style="fill:#A1633A;" d="M439.536,174.261c2.96,1.199,4.883,4.417,4.831,7.611c-0.052,3.193-1.929,6.226-4.607,7.968
						c-2.677,1.742-6.059,2.247-9.203,1.686c-1.395-0.249-2.874-0.79-3.59-2.013c-0.752-1.285-0.434-2.911,0.007-4.332
						C428.634,179.837,432.223,171.298,439.536,174.261z"/>
					<g>
						<path style="fill:none;stroke:#000000;stroke-linecap:round;stroke-linejoin:round;stroke-miterlimit:10;" d="
							M436.468,178.724c-2.521,2.188-4.026,5.501-4.017,8.839"/>
						<path style="fill:none;stroke:#000000;stroke-linecap:round;stroke-linejoin:round;stroke-miterlimit:10;" d="
							M438.384,183.982c-1.553,0.202-3.176-0.173-4.482-1.037"/>
					</g>
				</g>
				<g>
					<path style="fill:#753C17;" d="M403.063,171.87c-0.022-1.012-0.329-2.217-1.292-2.53c-0.657-0.214-1.389,0.102-1.878,0.59
						c-0.489,0.488-0.794,1.125-1.129,1.729c-0.928,1.675-2.158,3.182-3.612,4.427c-0.652,0.558-1.358,1.075-1.855,1.774
						c-0.497,0.699-0.754,1.646-0.393,2.424c0.302,0.651,0.989,1.066,1.697,1.182c0.708,0.117,1.435-0.029,2.116-0.255
						C400.946,179.802,403.159,176.208,403.063,171.87z"/>
					<g>
						<path style="fill:none;stroke:#000000;stroke-linecap:round;stroke-linejoin:round;stroke-miterlimit:10;" d="M410.103,168.86
							c1.614-1.09,3.78-1.312,5.581-0.572c1.802,0.74,3.186,2.42,3.567,4.331"/>
						<path d="M409.758,177.924c-0.387,0.558-0.99,1.097-1.658,0.979c-0.615-0.109-1.001-0.732-1.175-1.331
							c-0.291-0.998-0.208-2.1,0.227-3.045c0.475-1.031,2.484-2.715,3.475-1.294C411.485,174.464,410.493,176.865,409.758,177.924z"
							/>
					</g>
					<g>
						<path style="fill:none;stroke:#000000;stroke-linecap:round;stroke-linejoin:round;stroke-miterlimit:10;" d="
							M397.361,165.969c-0.525-1.06-1.177-2.08-2.081-2.842c-0.904-0.763-2.09-1.246-3.265-1.119
							c-1.176,0.127-2.301,0.945-2.602,2.088"/>
						<path d="M391.09,172.592c-0.212,0.333-0.463,0.651-0.792,0.87c-0.329,0.219-0.746,0.33-1.127,0.226
							c-0.747-0.203-1.061-1.088-1.144-1.858c-0.095-0.89-0.033-1.809,0.289-2.644c0.323-0.835,0.922-1.58,1.723-1.98
							C393.119,165.671,391.843,171.41,391.09,172.592z"/>
					</g>
					<g>
						<path style="fill:#F57A6F;" d="M401.331,189.798c2.7,0.342,5.48,0.056,8.029-0.901c-1.02,3.526-4.253,6.203-7.849,6.939
							c-2.596,0.532-5.315,0.112-7.745-0.971C395.583,192.354,398.319,190.524,401.331,189.798z"/>
						<path d="M394.177,187.186c2.139,1.413,4.612,2.29,7.155,2.612c-3.013,0.726-5.749,2.556-7.564,5.067
							c-0.936-0.417-1.832-0.923-2.656-1.524C392.968,191.853,394.458,189.548,394.177,187.186z"/>
					</g>
				</g>
			</g>
		</g>
		<g>
			<g>
				<g>
					<path style="fill:#F7B385;" d="M115.999,236.843c-0.332,0.275-0.664,0.551-0.996,0.826c-4.437-8.079-5.941-17.73-4.172-26.776
						c0.344-1.757,0.883-3.615,2.276-4.739c1.617-1.306,4.013-1.246,5.912-0.399c2.959,1.321,5.774,3.948,8.547,5.707
						c3.246,2.059,6.483,4.133,9.63,6.343c7.061,4.958,14.451,9.446,22.106,13.425c0.708-5.521,1.595-11.027,1.993-16.567
						c0.415-5.781,0.83-11.561,1.245-17.341c0.27-3.757,0.54-7.514,0.809-11.272c4.783,0.332,9.62-0.118,14.26-1.326
						c-0.839,0.218,0.882,10.645,0.983,11.525c0.578,5.041,0.974,10.102,1.188,15.172c0.423,10.026,0.135,20.082-0.869,30.067
						c-0.223,2.214-0.487,4.453-1.28,6.532c-1.374,3.603-4.354,5.961-8.088,6.647c-4.659,0.856-9.461,0.33-14.122-0.51
						c-14.639-2.638-28.711-8.383-41.014-16.744"/>
					<g>
						<path style="fill:#E0764C;" d="M150.352,226.329c1.798,4.997,5.697,9.2,10.546,11.366c0.121,0.054,0.247,0.107,0.379,0.102
							c0.132-0.006,0.27-0.09,0.293-0.22c0.015-0.081-0.017-0.163-0.048-0.24c-0.827-2.036-1.654-4.072-2.482-6.108L150.352,226.329
							z"/>
						<path style="fill:#E0764C;" d="M166.317,248.004c-0.154-1.344,0.198-2.755,1.031-3.821c0.834-1.066,2.155-1.756,3.508-1.751
							c1.353,0.005,2.7,0.736,3.375,1.908c-0.72,0.268-1.478-0.206-2.219-0.405c-1.285-0.345-2.692,0.182-3.659,1.096
							c-0.967,0.914-1.55,2.163-1.951,3.431c-0.15-0.471-0.127-0.995,0.064-1.451"/>
					</g>
				</g>
				<g>
					<g>
						<path style="fill:#F7B385;" d="M183.42,168.831c0.449,2.25-0.027,4.578-0.653,6.786c-0.774,2.731-1.782,5.403-3.129,7.902
							c-1.1,2.04-2.508,4.037-4.566,5.104c-2.058,1.067-4.892,0.922-6.372-0.861c-0.458,0.829-1.304,1.433-2.237,1.595
							s-1.934-0.119-2.645-0.745c-1.176-1.035-0.987-2.811-1.728-4.178c-0.777-1.435-1.995-2.641-3.475-3.341
							c-0.731-0.346-1.622-0.691-1.813-1.477c-0.131-0.541,0.153-1.12,0.585-1.472c0.431-0.353,0.984-0.517,1.53-0.628
							c1.768-0.359,3.603-0.236,5.382-0.538c0.995-0.168,2.037-0.517,2.636-1.329c0.529-0.717,0.586-1.616,0.577-2.474
							c-0.008-0.735,0.175-1.495,0.46-2.181c0.589-1.421,1.938-2.364,3.27-3.133c2.002-1.156,4.107-2.051,6.287-2.808
							c0.717-0.249,1.543-0.774,2.324-0.746c0.869,0.031,1.617,0.81,2.13,1.439C182.706,166.631,183.196,167.711,183.42,168.831z"/>
						<path style="fill:#E0764C;" d="M174.057,178.616c0.436-0.412,0.951-0.875,1.481-1.161c0.462-0.249,0.856-0.393,1.268-0.756
							c0.904-0.797,1.628-1.798,2.095-2.909c0.17-0.405,0.308-0.863,0.162-1.278c-0.152-0.433-0.59-0.716-1.039-0.811
							c-0.89-0.189-1.876-0.043-2.677,0.356c-1.406,0.701-2.725,1.578-4.172,2.19c-1.448,0.611-3.088,0.945-4.593,0.495
							c-0.771-0.23-1.303-0.358-2.122-0.179c-0.731,0.16-1.427,0.485-2.013,0.952c-0.431,0.344-0.817,0.786-0.935,1.324
							c-0.186,0.85,0.336,1.697,0.952,2.312c1.334,1.332,3.195,2.097,4.343,3.593c0.386,0.503,0.732,1.118,1.34,1.301
							c0.437,0.132,0.911,0.001,1.326-0.192c1.038-0.483,1.792-1.324,2.287-2.34C172.254,180.493,173.229,179.399,174.057,178.616z"
							/>
					</g>
					<g>
						<g>
							<path style="fill:#B5852A;" d="M178.802,171.464c1.299,3.286-2.676,4.7-5.089,5.337c-6.972,1.841-13.62,4.905-19.548,9.01
								c-2.38,1.648-4.777,3.519-7.64,3.949c-1.219,0.183-2.659-0.011-3.339-1.039c-0.446-0.674-0.448-1.567-0.197-2.336
								c0.251-0.769,0.727-1.441,1.201-2.096c2.134-2.952,4.361-5.836,6.624-8.691c1.132-1.428,2.272-2.848,3.415-4.267
								c0.934-1.159,2.07-2.011,3.304-2.856c3.228-2.209,7.269-3.188,11.155-2.741c2.898,0.333,5.694,1.453,8.049,3.169
								C177.57,169.512,178.4,170.445,178.802,171.464z"/>
							<path style="fill:#F2A10A;" d="M143.243,185.745c-0.136,0.314-0.256,0.63-0.357,0.948c-0.74,2.328-1.05,4.791-0.906,7.23
								c0.024,0.408,0.063,0.824,0.235,1.195c0.172,0.37,0.503,0.691,0.908,0.744c0.386,0.051,0.773-0.151,1.034-0.441
								c0.26-0.29,0.414-0.659,0.544-1.027c0.188-0.532,0.338-1.081,0.606-1.577c0.268-0.496,0.677-0.946,1.214-1.119
								c0.63-0.203,1.316,0.002,1.975-0.066c1.143-0.118,2.055-1.051,2.561-2.083c0.506-1.032,0.704-2.183,1.064-3.275
								c0.38-1.154,1.053-2.3,2.095-2.976c1.146-0.743,2.662-0.642,3.783-1.487c0.922-0.696,1.398-1.836,2.228-2.639
								c2.459-2.382,7.055-1.097,9.441-3.552c0.543-0.559,0.945-1.294,1.647-1.632c0.812-0.392,1.768-0.138,2.666-0.059
								c0.742,0.065,1.583-0.041,2.053-0.619c0.555-0.683,0.314-1.775-0.332-2.373c-0.645-0.598-1.569-0.792-2.449-0.821
								c-0.879-0.029-1.763,0.082-2.638-0.014c-1.739-0.192-3.272-1.176-4.793-2.042c-1.521-0.865-3.223-1.657-4.955-1.408
								c-1.739,0.25-2.96,1.45-4.211,2.566c-1.157,1.033-2.33,2.024-3.428,3.125c-2.532,2.54-4.827,5.318-6.844,8.284
								C145.314,182.202,144.023,183.943,143.243,185.745z"/>
						</g>
						<g>
							<g>
								<path style="fill:#F2594B;" d="M155.259,177.177c-0.343,0.529-0.656,1.139-0.553,1.761c0.114,0.686,0.754,1.219,1.445,1.305
									c0.69,0.086,1.394-0.227,1.877-0.727c0.484-0.5,0.765-1.168,0.903-1.85c0.139-0.688,0.126-1.455-0.277-2.029
									C157.437,173.901,155.903,176.185,155.259,177.177z"/>
								<path style="fill:#F57A6F;" d="M155.301,178.231c-0.079,0.227-0.139,0.475-0.075,0.707c0.094,0.341,0.448,0.566,0.8,0.59
									c0.353,0.024,0.698-0.119,0.993-0.314c0.756-0.499,1.257-1.365,1.312-2.27c0.034-0.545-0.287-1.539-1.025-1.286
									c-0.312,0.107-0.562,0.408-0.781,0.642c-0.248,0.266-0.479,0.548-0.681,0.851
									C155.622,177.488,155.434,177.849,155.301,178.231z"/>
							</g>
							<g>
								<path style="fill:#F2594B;" d="M161.809,174.276c-0.208,0.438-0.331,0.967-0.113,1.4c0.221,0.439,0.748,0.657,1.239,0.643
									c0.491-0.014,0.955-0.219,1.394-0.44c0.596-0.302,1.189-0.655,1.592-1.188c0.403-0.533,0.58-1.283,0.283-1.882
									c-0.4-0.807-1.523-0.849-2.254-0.543C163.023,172.653,162.241,173.364,161.809,174.276z"/>
								<path style="fill:#F57A6F;" d="M162.43,174.819c-0.104,0.23-0.188,0.504-0.07,0.727c0.096,0.181,0.307,0.278,0.512,0.286
									c0.205,0.008,0.405-0.058,0.594-0.135c0.521-0.211,1.009-0.506,1.425-0.883c0.256-0.232,0.489-0.502,0.614-0.824
									c0.124-0.322,0.126-0.706-0.058-0.998c-0.264-0.419-0.855-0.523-1.252-0.264c-0.498,0.325-0.934,0.763-1.279,1.246
									C162.727,174.239,162.563,174.522,162.43,174.819z"/>
							</g>
							<g>
								<path style="fill:#F2594B;" d="M151.603,173.975c-0.144,0.365-0.206,0.812,0.031,1.125c0.279,0.369,0.83,0.376,1.282,0.278
									c0.663-0.144,1.301-0.447,1.781-0.927c0.48-0.48,0.79-1.144,0.777-1.822c-0.021-1.145-1.133-1.189-1.979-0.819
									C152.685,172.164,151.917,173.18,151.603,173.975z"/>
								<path style="fill:#F57A6F;" d="M152.246,173.734c-0.173,0.275-0.322,0.621-0.179,0.913c0.158,0.322,0.59,0.397,0.945,0.339
									c0.372-0.061,0.727-0.224,1.018-0.465c0.264-0.218,0.512-0.492,0.626-0.817c0.077-0.222,0.143-0.454,0.132-0.689
									c-0.011-0.235-0.111-0.477-0.307-0.608c-0.195-0.132-0.455-0.134-0.68-0.062c-0.224,0.072-0.421,0.208-0.614,0.343
									c-0.201,0.141-0.377,0.257-0.528,0.448C152.508,173.326,152.375,173.528,152.246,173.734z"/>
							</g>
							<g>
								<path style="fill:#F2594B;" d="M147.694,180.819c0.044,0.261,0.178,0.519,0.407,0.653c0.363,0.212,0.829,0.054,1.187-0.168
									c0.91-0.564,2.24-2.223,1.671-3.387c-0.664-1.357-2.189-0.501-2.721,0.42C147.846,179.014,147.561,180.035,147.694,180.819z
									"/>
								<path style="fill:#F57A6F;" d="M148.432,179.905c0.006,0.221,0.068,0.476,0.27,0.567c0.185,0.083,0.4-0.014,0.569-0.128
									c0.347-0.235,0.638-0.552,0.843-0.917c0.129-0.229,0.225-0.484,0.227-0.747c0.002-0.263-0.101-0.535-0.31-0.695
									C149.096,177.271,148.415,179.283,148.432,179.905z"/>
							</g>
						</g>
					</g>
					<g>
						<path style="fill:#F7B385;" d="M168.966,173.98c-0.199,0.118-0.406,0.222-0.625,0.304c-0.804,0.305-2.354,0.337-2.87-0.489
							c-0.217-0.347-0.258-0.797-0.109-1.178c-0.825,0.639-1.724,1.307-2.767,1.349c-0.408,0.016-0.849-0.085-1.115-0.394
							c-0.244-0.284-0.293-0.697-0.208-1.062c0.085-0.365,0.289-0.689,0.507-0.993c-0.772,0.652-1.717,1.097-2.712,1.276
							c-0.315,0.057-0.641,0.087-0.954,0.017c-0.313-0.07-0.612-0.252-0.762-0.534c-0.152-0.285-0.135-0.637-0.025-0.941
							c0.11-0.304,0.302-0.57,0.497-0.829c-0.454,0.385-0.959,0.737-1.539,0.872c-0.58,0.134-1.25,0.011-1.645-0.434
							c-0.539-0.607-0.394-1.576,0.019-2.276c0.946-1.604,2.461-2.538,3.952-3.579c1.599-1.117,3.247-2.168,4.973-3.079
							c0.983-0.518,2.022-0.999,3.132-1.06c1.109-0.061,2.31,0.385,2.863,1.349c0.713-0.523,1.49-1.059,2.374-1.084
							c0.884-0.025,1.84,0.712,1.694,1.584c0.866-0.379,1.788-0.766,2.725-0.64c0.937,0.126,1.843,0.984,1.655,1.911
							c0.13-0.642,2.434,0.326,2.726,0.498c0.712,0.421,1.301,1.09,1.509,1.891c0.208,0.801-0.012,1.727-0.639,2.267
							c-0.776,0.668-1.919,0.621-2.938,0.516c-0.674-0.07-1.377-0.146-2.047-0.001c-0.651,0.14-1.304,0.494-1.897,0.79
							c-1.382,0.689-2.724,1.478-3.911,2.471C170.221,173.009,169.641,173.579,168.966,173.98z"/>
						<g>
							<path style="fill:#E0764C;" d="M170.944,167.275c2.067-1.614,4.444-2.903,7.026-3.361c-1.006-0.323-2.101-0.016-3.082,0.376
								c-3.057,1.218-5.764,3.283-7.777,5.883c-0.566,0.731-1.081,1.505-1.527,2.315c0.315-0.474,0.796-0.886,1.187-1.3
								c0.435-0.461,0.875-0.917,1.324-1.364C168.997,168.923,169.939,168.06,170.944,167.275z"/>
							<path style="fill:#E0764C;" d="M173.639,162.715c-1.177-0.079-2.356,0.225-3.429,0.715c-1.073,0.491-2.051,1.164-3.004,1.859
								c-1.208,0.881-2.391,1.808-3.398,2.912c-0.911,0.999-1.657,2.141-2.109,3.419c0.136-0.421,0.502-0.841,0.755-1.201
								c0.288-0.409,0.592-0.807,0.911-1.193c0.638-0.771,1.337-1.493,2.085-2.158c1.491-1.325,3.183-2.425,5.001-3.245
								C171.478,163.362,172.546,162.989,173.639,162.715z"/>
							<path style="fill:#E0764C;" d="M165.641,163.649c1.164-0.644,2.42-1.206,3.749-1.249c-1.044-0.43-2.236-0.056-3.268,0.402
								c-2.094,0.929-4.049,2.219-5.588,3.916c-0.527,0.581-1.003,1.206-1.448,1.852c-0.424,0.615-0.775,1.314-1.228,1.9
								c0.019-0.255,0.318-0.511,0.472-0.701c0.22-0.271,0.446-0.537,0.678-0.798c0.463-0.523,0.948-1.026,1.453-1.508
								c0.996-0.952,2.071-1.823,3.209-2.599C164.308,164.428,164.966,164.023,165.641,163.649z"/>
						</g>
					</g>
				</g>
			</g>
			<g>
				<path d="M53.331,338.617c2.737,8.846,8.33,16.785,15.739,22.34c8.379,6.282,18.673,9.385,28.834,11.923
					c2.061,0.515,4.297,1,6.254,0.173c2.831-1.196,3.932-4.601,4.372-7.643c1.882-13.013-2.345-26.245-8.655-37.78
					c-3.303-6.038-7.248-11.829-12.469-16.313c-5.221-4.483-11.838-7.588-18.72-7.659C50.077,303.468,49.239,325.393,53.331,338.617
					z"/>
				<g>
					<path style="fill:#F2594B;" d="M119.825,270.648c-0.224-4.084,0.257-8.254,1.091-12.268c1.471-7.075,3.986-13.896,5.565-20.948
						c1.579-7.052,2.183-14.564-0.152-21.403c-5.631-16.489-27.555-18.366-41.932-13.8c-12.457,3.956-26.439,14.465-25.902,28.715
						c0.246,6.542,2.502,12.816,3.874,19.218c2.791,13.025,1.86,26.826-2.655,39.358c-1.709,4.744-3.924,9.328-5.219,14.215
						c-0.507,1.914-1.829,5.809-1.051,7.742c0.691,1.717,3.139,2.312,4.76,2.971c9.891,4.021,20.842,5.446,31.433,4.099
						c11.429-1.453,22.428-6.139,31.394-13.374c2.053-1.656,5.298-4.001,6.527-6.36c1.379-2.645-0.088-6.999-1.15-9.493
						c-1.394-3.273-3.384-6.272-4.687-9.582C120.576,276.829,119.996,273.763,119.825,270.648z"/>
					<g>
						<path style="fill:#B54338;" d="M101.662,226.066c-0.467,1.015-0.43,2.269,0.174,3.21c0.604,0.941,1.782,1.504,2.881,1.299
							c1.304-0.243,2.245-1.45,2.626-2.72c0.286-0.956,0.307-2.049-0.223-2.895C105.666,222.638,102.558,224.12,101.662,226.066z"/>
						<path style="fill:#B54338;" d="M101.467,242.235c-0.03,1.278,0.534,2.647,1.671,3.232c1.197,0.615,2.782,0.163,3.618-0.891
							c1.621-2.045,0.441-4.987-1.544-6.291C102.684,236.623,101.515,240.215,101.467,242.235z"/>
						<path style="fill:#B54338;" d="M98.038,257.569c-0.144,1.564,0.615,3.239,2.013,3.955c1.274,0.652,2.892,0.423,4.07-0.39
							c1.669-1.152,2.449-3.482,1.717-5.373c-0.655-1.691-2.844-3.148-4.702-2.706C99.443,253.458,98.18,256.021,98.038,257.569z"/>
					</g>
				</g>
			</g>
			<g>
				<g>
					<path style="fill:#F7B385;" d="M80.535,207.792c0.3,1.985,1.675,3.862,3.075,5.253c1.681,1.671,3.738,2.914,5.852,3.986
						c2.723,1.38,5.643,2.517,8.692,2.655c2.586,0.117,5.347-0.557,7.361-2.245c1.187-0.994,0.962-2.509,1.081-3.983
						c0.139-1.716,0.238-3.436,0.301-5.157c0.252-6.889-0.081-13.793-0.827-20.644c-0.279-2.562-0.623-5.147-1.547-7.553
						c-0.924-2.406-2.49-4.648-4.729-5.926c-2.18-1.245-4.9-1.355-7.242-0.517c-1.742,0.623-4.067,1.95-4.745,3.773
						c-1.13,3.042-1.652,6.46-2.446,9.607c-0.811,3.213-1.622,6.425-2.433,9.638c-0.785,3.04-1.521,6.092-2.305,9.132
						C80.453,206.474,80.436,207.139,80.535,207.792z"/>
					<path style="fill:#E0764C;" d="M91.263,199.158c3.645,4.766,9.206,8.021,15.146,8.866c1.691-7.851,0.109-16.354-4.291-23.072
						c-1.695-2.588-3.947-5.02-6.912-5.901c-4.092-1.216-8.663,1.533-8.702,5.852C86.458,189.992,88.173,195.118,91.263,199.158z"/>
				</g>
				<path style="fill:#FFFFFF;" d="M81.968,217.559c0.238,0.478,0.497,0.946,0.788,1.399c2.573,4.001,6.548,7.09,11.076,8.558
					c0.77,0.249,1.621,0.451,2.372,0.15c1.38-0.553,1.816-2.016,2.513-3.192c0.896-1.51,1.929-2.938,3.085-4.26
					c0.351-0.402,0.734-0.807,1.235-0.989c0.765-0.277,1.606,0.029,2.361,0.333c1.163,0.467,2.326,0.934,3.488,1.401
					c0.615,0.247,1.281,0.498,1.924,0.337c2.542-0.636,1.805-6.575,1.553-8.302c-0.221-1.512-0.734-2.977-1.1-4.465
					c-0.393-1.6-0.949-3.16-1.655-4.649c-0.353-0.744-0.743-1.471-1.17-2.176c-0.213-0.352-0.435-0.699-0.666-1.041
					c-0.12-0.178-0.656-0.719-0.652-0.915c-0.049,2.237-0.154,4.473-0.314,6.705c-0.144,2.019-0.152,4.203-0.67,6.165
					c-0.394,1.49-0.949,3.034-2.141,4.012c-1.39,1.141-3.356,1.268-5.14,1.041c-4.123-0.525-7.941-2.665-10.906-5.577
					c-3.404-3.343-5.98-7.587-5.844-12.494c0.006-0.204-0.074-0.492-0.275-0.452c-0.092,0.018-0.151,0.107-0.198,0.188
					c-1.747,3.001-2.553,6.577-2.26,10.064c0.149,1.773,0.576,3.522,1.273,5.159C81.077,215.565,81.481,216.582,81.968,217.559z"/>
			</g>
			<g>
				<path d="M123.663,143.451c-0.238,6.981,2.209,14.021,6.727,19.348c2.834,3.342,6.452,6.045,8.744,9.779
					c2.58,4.204,3.212,9.551,1.684,14.242c-0.152-5.925-3.355-11.691-8.306-14.949c-2.688-1.769-5.832-2.833-8.294-4.904
					c-2.658-2.234-4.315-5.515-4.969-8.925c-0.654-3.41-0.362-6.948,0.406-10.334c0.175-0.772,0.382-1.554,0.817-2.214
					c0.436-0.66,1.143-1.189,1.933-1.216"/>
				<path style="fill:#F7B385;" d="M84.144,180.47c4.293,9.963,15.882,17.097,26.546,17.65c6.564,0.34,13.744-0.871,17.035-7.164
					c1.629-3.115,2.207-6.664,2.589-10.158c0.145-1.326,0.263-2.655,0.354-3.986c0.503-7.388,0.158-14.869-1.387-22.123
					c-0.766-3.6-1.83-7.14-3.227-10.546c-0.507-1.238-0.933-2.655-2.042-3.483c-1.138-0.85-2.493-1.486-3.671-2.298
					c-3.059-2.106-6.645-3.222-10.316-3.628c-1.609-0.178-3.231-0.223-4.848-0.166c-3.697,0.13-7.413,0.788-10.781,2.319
					c-6.731,3.06-11.602,9.519-13.588,16.641c-1.28,4.589-1.438,9.438-0.767,14.141C80.691,172.232,82.335,176.274,84.144,180.47z"
					/>
				<g>
					<g>
						<path d="M39.688,121.215c-27.737,25.863,12.255,43.095-6.898,62.655c-0.91,1.828,0.86,3.431,2.583,2.35
							c25.261-13.034,4.368-30.449,18.451-42.488C84.966,129.432,61.741,99.102,39.688,121.215z"/>
						<path style="fill:#F2594B;" d="M64.374,138.936c-0.471-0.548-0.943-1.096-1.412-1.645c1.747-3.38,3.494-6.759,5.242-10.139
							c0.122-0.235,0.268-0.492,0.52-0.573c0.213-0.068,0.441,0.01,0.651,0.088c5.075,1.877,10.076,3.955,14.987,6.226
							c0,0.388-1.416,1.54-1.703,1.852c-0.509,0.554-1.023,1.05-1.484,1.649c-1.013,1.315-1.952,2.687-2.844,4.086
							c-1.717,2.694-3.255,5.496-4.763,8.31c-0.183,1.217-1.951-0.679-2.244-0.989c-0.968-1.025-1.682-2.368-2.539-3.503
							C67.388,142.453,65.884,140.691,64.374,138.936z"/>
					</g>
					<path d="M97.523,139.392c-0.088,0.714,6.228,2.886,6.97,3.138c2.417,0.82,4.911,1.411,7.439,1.765
						c2.589,0.363,5.213,0.478,7.823,0.337c1.688-0.091,5.823,0.098,6.776-1.721c0.781-1.49-1.63-4.799-2.411-6.016
						c-2.606-4.062-6.28-7.408-10.456-9.804c-5.939-3.406-12.824-4.953-19.667-5.17c-4.244-0.135-8.943,1.746-12.59,3.87
						c-3.735,2.176-6.958,5.187-9.405,8.749c-4.219,6.142-5.966,13.862-5.167,21.27c0.735,6.811,3.709,13.541,8.964,17.936
						c1.329,1.112,3.047,2.113,4.711,1.631c1.613-0.467,2.536-2.146,3.075-3.737c0.666-1.964,1.315-3.552,2.563-5.216
						c1.376-1.835,2.573-3.759,3.787-5.703c2.579-4.128,4.582-8.616,5.935-13.293C96.633,144.799,97.188,142.109,97.523,139.392z"/>
					<path d="M83.727,156.03c0.841-2.533,3.034-5.086,5.942-4.936c1.473,0.076,2.938,1.062,3.292,2.494
						c0.355,1.434-0.401,2.876-0.969,4.24c-1.452,3.491-2.031,8.206-0.642,11.825c1.291,3.365,4.226,6.427,6.19,9.458
						c1.975,3.048,3.645,6.461,3.701,10.092c0.055,3.631-1.875,7.486-5.282,8.743c0.803-4.214,1.597-8.638,0.302-12.728
						c-2.001-6.319-8.411-10.206-11.479-16.082C82.698,165.145,82.308,160.303,83.727,156.03z"/>
				</g>
				<g>
					<path style="fill:#F7B385;" d="M74.196,162.638c-3.136,1.061-5.321,4.273-5.462,7.581c-0.14,3.307,1.618,6.56,4.282,8.525
						c2.664,1.965,6.132,2.694,9.42,2.304c1.458-0.173,3.022-0.642,3.837-1.864c0.856-1.283,0.626-2.985,0.256-4.483
						C85.138,169.071,81.943,160.018,74.196,162.638z"/>
					<g>
						<path style="fill:none;stroke:#000000;stroke-linecap:round;stroke-linejoin:round;stroke-miterlimit:10;" d="M77.099,167.443
							c2.475,2.417,3.831,5.937,3.618,9.39"/>
						<path style="fill:none;stroke:#000000;stroke-linecap:round;stroke-linejoin:round;stroke-miterlimit:10;" d="M74.797,172.767
							c1.595,0.303,3.296,0.014,4.701-0.801"/>
					</g>
				</g>
				<g>
					<path style="fill:#E0764C;" d="M111.955,162.149c0.085-1.046,0.476-2.273,1.491-2.539c0.693-0.181,1.431,0.19,1.908,0.725
						c0.476,0.535,0.753,1.212,1.063,1.858c0.859,1.789,2.039,3.423,3.468,4.801c0.64,0.617,1.339,1.195,1.811,1.948
						s0.68,1.749,0.259,2.532c-0.352,0.655-1.088,1.042-1.828,1.12c-0.74,0.077-1.483-0.117-2.174-0.393
						C113.662,170.485,111.591,166.632,111.955,162.149z"/>
					<g>
						<path style="fill:none;stroke:#000000;stroke-linecap:round;stroke-linejoin:round;stroke-miterlimit:10;" d="
							M104.853,158.606c-1.604-1.226-3.831-1.588-5.74-0.932c-1.909,0.656-3.444,2.311-3.954,4.264"/>
						<path d="M104.659,168.006c0.367,0.601,0.957,1.195,1.656,1.113c0.643-0.075,1.08-0.696,1.297-1.306
							c0.361-1.015,0.343-2.16-0.049-3.164c-0.429-1.096-2.405-2.961-3.517-1.551C103.082,164.32,103.963,166.865,104.659,168.006z"
							/>
					</g>
					<g>
						<path style="fill:none;stroke:#000000;stroke-linecap:round;stroke-linejoin:round;stroke-miterlimit:10;" d="
							M118.213,156.389c0.608-1.064,1.344-2.081,2.326-2.814c0.982-0.734,2.238-1.162,3.447-0.959
							c1.209,0.203,2.323,1.117,2.565,2.319"/>
						<path d="M124.299,163.625c0.199,0.358,0.44,0.702,0.767,0.949c0.327,0.247,0.752,0.387,1.153,0.303
							c0.786-0.165,1.165-1.061,1.297-1.853c0.153-0.915,0.145-1.87-0.139-2.754c-0.283-0.884-0.858-1.691-1.663-2.153
							C122.621,156.34,123.592,162.355,124.299,163.625z"/>
					</g>
					<g>
						<path style="fill:#F57A6F;" d="M112.655,180.805c-2.815,0.189-5.674-0.275-8.253-1.421c0.841,3.71,4.023,6.677,7.699,7.658
							c2.654,0.709,5.493,0.439,8.073-0.534C118.448,183.799,115.728,181.74,112.655,180.805z"/>
						<path d="M120.217,178.537c-2.3,1.332-4.911,2.089-7.562,2.268c3.073,0.935,5.793,2.995,7.518,5.703
							c0.993-0.374,1.951-0.844,2.84-1.415C121.184,183.44,119.783,180.965,120.217,178.537z"/>
					</g>
				</g>
			</g>
		</g>
		<g>
			<g>
				<path style="fill:#3F7EA6;" d="M474.382,363.71c-5.473,47.159-98.697,85.961-220.446,85.961S42.193,410.38,33.49,363.71
					c-11.085-59.446,98.697-85.961,220.446-85.961S481.911,298.826,474.382,363.71z"/>
				<ellipse style="fill:#6598B8;" cx="253.936" cy="352.788" rx="220.446" ry="85.961"/>
			</g>
			<g>
				<ellipse cx="365.937" cy="305.699" rx="34.02" ry="17.993"/>
				<path style="fill:#1A1A1A;" d="M336.963,303.427c1.905-1.918,12.089-11.78,28.279-11.866
					c16.464-0.087,26.852,10.001,28.705,11.866c-2.512-2.181-13.035-10.817-28.917-10.662
					C349.682,292.916,339.556,301.175,336.963,303.427z"/>
			</g>
			<g>
				<ellipse cx="138.949" cy="307" rx="32.745" ry="17.319"/>
				<path style="fill:#1A1A1A;" d="M111.061,304.813c1.834-1.846,11.636-11.338,27.219-11.421
					c15.847-0.084,25.846,9.626,27.629,11.421c-2.418-2.1-12.547-10.412-27.834-10.262
					C123.304,294.696,113.557,302.646,111.061,304.813z"/>
			</g>
			<g>
				<g>
					<path style="fill:#F2A10A;" d="M422.946,335.154c0.148,0.553,0.262,1.105,0.273,1.632c0.02,0.925-0.148,2.002-0.316,2.918
						c-0.704,3.834-3.277,7.05-6.868,8.57c-0.111,0.047-0.223,0.093-0.336,0.136c-2.809,1.094-5.862,1.427-8.877,1.448
						c-4.143,0.029-8.412-0.557-11.992-2.643c-3.58-2.085-6.349-5.9-6.312-10.043c0.026-2.799,1.252-5.391,1.832-8.096
						c0.63-2.943,0.903-5.962,0.806-8.97c-0.105-3.215-0.609-6.559,0.552-9.559c1.143-2.954,3.813-5.145,6.784-6.243
						c2.971-1.098,6.225-1.206,9.378-0.91c3.8,0.356,7.853,1.472,10.16,4.513c1.728,2.278,1.878,5.109,2.107,7.862
						c0.26,3.115,0.323,6.246,0.699,9.351c0.324,2.671,0.878,5.307,1.506,7.922C422.501,333.711,422.753,334.433,422.946,335.154z"
						/>
					<g>
						<path style="fill:#FFFFFF;" d="M395.151,318.476c0.081,1.544,0.125,3.087,0,4.631c-0.235,2.905-0.915,5.605-1.696,8.402
							c-0.679,2.433-1.113,5.075-0.249,7.448c0.975,2.676,3.492,4.567,6.203,5.438c2.711,0.872,5.62,0.861,8.464,0.719
							c2.631-0.131,5.328-0.386,7.69-1.551c2.392-1.18,3.658-3.466,3.837-6.123c0.157-2.329-0.469-4.634-1.158-6.864
							c-0.689-2.23-1.453-4.47-1.585-6.8c-0.152-2.685,0.543-5.344,0.684-8.03c0.176-3.352-1.043-8.633-5.386-8.016
							c-0.938,0.133-1.826,0.482-2.679,0.884c-0.747,0.352-1.353,0.46-2.164,0.584c-1.866,0.284-3.763-0.062-5.56-0.566
							c-0.812-0.228-1.628-0.504-2.472-0.498c-3.085,0.021-4.164,2.804-4.15,5.441C394.94,315.208,395.066,316.842,395.151,318.476z
							"/>
						<path style="fill:#F2A10A;" d="M401.037,310.188c-1.206-0.355-2.629-0.526-3.614,0.254c-0.664,0.525-0.98,1.383-1.103,2.22
							c-0.294,2.01,0.353,4.24,1.267,6.014c0.895,1.736,2.083,3.404,3.809,4.393c2.258,1.294,5.155,1.197,7.507,0.085
							c2.352-1.112,4.187-3.14,5.431-5.426c0.702-1.289,1.24-2.706,1.26-4.174c0.017-1.224-0.363-2.499-1.192-3.419
							c-0.983-1.091-2.277-0.891-3.551-0.454C407.492,310.833,404.451,311.191,401.037,310.188z"/>
					</g>
				</g>
				<g>
					<path style="fill:#FFFFFF;" d="M410.242,299.203c-0.093,0.051-0.198,0.075-0.306,0.059c0.645-0.085,1.28,0.318,1.638,0.86
						c0.358,0.543,0.488,1.203,0.566,1.849c0.074,0.612,0.108,1.229,0.102,1.846c-0.002,0.259-0.014,0.526-0.129,0.758
						c-0.422,0.85-1.813,0.991-2.626,1.164c-1.066,0.226-2.151,0.367-3.24,0.417c-2.171,0.1-4.363-0.165-6.43-0.844
						c-0.397-0.131-0.811-0.29-1.071-0.618c-0.242-0.305-0.316-0.717-0.282-1.104c0.084-0.952,0.436-1.969,0.822-2.839
						c0.314-0.706,0.525-1.545,1.491-1.557c-0.4-0.259-0.303-0.922,0.063-1.226c0.366-0.305,0.876-0.35,1.351-0.383
						c2.302-0.159,4.624-0.318,6.91-0.003c0.33,0.045,0.667,0.104,0.955,0.271s0.52,0.468,0.517,0.801
						C410.571,298.877,410.432,299.097,410.242,299.203z"/>
					<path style="fill:#B3B3B3;" d="M410.097,299.214c-3.036,0.901-6.314,0.848-9.353-0.041
						C403.803,299.811,406.976,299.051,410.097,299.214z"/>
					<path style="fill:#B3B3B3;" d="M407.641,298.028c0.044-0.013,0.094-0.03,0.113-0.069c0.022-0.045-0.009-0.1-0.055-0.126
						c-0.046-0.026-0.102-0.029-0.156-0.032c-1.131-0.057-2.265-0.026-3.397,0.005c-0.231,0.006-0.462,0.013-0.691,0.037
						c-0.1,0.01-0.22,0.041-0.242,0.131c-0.015,0.059,0.024,0.121,0.078,0.156c0.054,0.035,0.12,0.049,0.185,0.061
						c1.045,0.196,2.177,0.201,3.229,0.041C407.021,298.184,407.334,298.116,407.641,298.028z"/>
				</g>
			</g>
			<g>
				<g>
					<polygon style="fill:#E6E6E6;" points="366.769,386.004 367.969,358.805 392.928,358.805 394.895,385.044 					"/>
					<polygon style="fill:#FFFFFF;" points="366.16,387.684 367.423,360.485 393.698,360.485 395.768,386.724 					"/>
				</g>
				<path d="M400.039,384.788l-3.522-18.428c-0.339-1.772-1.889-3.054-3.693-3.054h-24.359c-1.796,0-3.341,1.27-3.689,3.032
					l-3.636,18.427c-0.459,2.324,1.32,4.488,3.689,4.488h31.517C398.706,389.253,400.482,387.105,400.039,384.788z"/>
			</g>
			<g>
				<g>
					<polygon style="fill:#E6E6E6;" points="292.83,303.536 294.03,276.337 318.989,276.337 320.956,302.576 					"/>
					<polygon style="fill:#FFFFFF;" points="292.221,305.216 293.484,278.017 319.759,278.017 321.829,304.256 					"/>
				</g>
				<path d="M326.1,302.319l-3.522-18.427c-0.339-1.772-1.889-3.054-3.693-3.054h-24.359c-1.796,0-3.341,1.27-3.689,3.032
					l-3.636,18.427c-0.458,2.324,1.32,4.488,3.689,4.488h31.517C324.767,306.785,326.543,304.637,326.1,302.319z"/>
			</g>
			<g>
				<g>
					<polygon style="fill:#E6E6E6;" points="72.867,354.641 74.067,327.442 99.025,327.442 100.992,353.681 					"/>
					<polygon style="fill:#FFFFFF;" points="72.257,356.321 73.52,329.122 99.795,329.122 101.865,355.361 					"/>
				</g>
				<path d="M106.137,353.424l-3.522-18.428c-0.339-1.772-1.889-3.054-3.693-3.054H74.562c-1.796,0-3.341,1.27-3.689,3.032
					l-3.636,18.427c-0.459,2.324,1.32,4.488,3.689,4.488h31.517C104.803,357.89,106.58,355.742,106.137,353.424z"/>
			</g>
			<g>
				<g>
					<path style="fill:#F2594B;" d="M207.014,297.126c0.148,0.553,0.261,1.104,0.273,1.632c0.02,0.925-0.148,2.002-0.316,2.918
						c-0.704,3.834-3.277,7.05-6.868,8.57c-0.111,0.047-0.223,0.092-0.336,0.136c-2.81,1.094-5.862,1.427-8.877,1.448
						c-4.143,0.029-8.412-0.557-11.992-2.643c-3.58-2.086-6.35-5.9-6.312-10.043c0.025-2.799,1.252-5.391,1.831-8.096
						c0.63-2.943,0.904-5.962,0.806-8.97c-0.105-3.215-0.61-6.559,0.552-9.559c1.143-2.954,3.813-5.145,6.784-6.243
						c2.971-1.098,6.224-1.206,9.378-0.91c3.8,0.356,7.852,1.472,10.16,4.513c1.728,2.278,1.878,5.109,2.107,7.862
						c0.26,3.115,0.323,6.246,0.699,9.351c0.324,2.671,0.878,5.307,1.506,7.921C206.569,295.683,206.821,296.405,207.014,297.126z"
						/>
					<g>
						<path style="fill:#FFFFFF;" d="M179.22,280.448c0.081,1.543,0.125,3.087,0,4.631c-0.234,2.905-0.915,5.605-1.696,8.402
							c-0.679,2.433-1.113,5.075-0.249,7.448c0.975,2.676,3.492,4.567,6.203,5.438c2.711,0.872,5.62,0.861,8.464,0.719
							c2.631-0.131,5.327-0.386,7.69-1.551c2.392-1.18,3.658-3.466,3.837-6.123c0.157-2.329-0.469-4.634-1.158-6.864
							c-0.689-2.23-1.453-4.47-1.585-6.8c-0.152-2.685,0.544-5.344,0.684-8.029c0.176-3.352-1.043-8.633-5.386-8.016
							c-0.938,0.133-1.826,0.482-2.679,0.884c-0.747,0.352-1.353,0.46-2.164,0.584c-1.866,0.284-3.763-0.062-5.56-0.566
							c-0.812-0.228-1.628-0.504-2.472-0.498c-3.085,0.021-4.164,2.804-4.15,5.441C179.008,277.181,179.134,278.815,179.22,280.448z
							"/>
						<path style="fill:#F2594B;" d="M185.106,272.16c-1.206-0.355-2.629-0.526-3.614,0.254c-0.664,0.525-0.98,1.383-1.103,2.22
							c-0.294,2.01,0.353,4.24,1.267,6.014c0.895,1.736,2.083,3.404,3.809,4.393c2.258,1.294,5.155,1.197,7.507,0.085
							c2.352-1.112,4.187-3.14,5.431-5.426c0.702-1.289,1.24-2.706,1.26-4.174c0.017-1.223-0.363-2.499-1.192-3.419
							c-0.983-1.091-2.277-0.891-3.551-0.454C191.561,272.806,188.519,273.164,185.106,272.16z"/>
					</g>
				</g>
				<g>
					<path style="fill:#FFFFFF;" d="M194.31,261.175c-0.093,0.051-0.198,0.075-0.306,0.059c0.645-0.085,1.28,0.318,1.638,0.86
						c0.358,0.543,0.488,1.203,0.565,1.849c0.074,0.612,0.108,1.229,0.102,1.846c-0.002,0.259-0.014,0.526-0.129,0.758
						c-0.422,0.85-1.813,0.991-2.626,1.164c-1.067,0.226-2.151,0.367-3.24,0.417c-2.171,0.1-4.363-0.165-6.43-0.844
						c-0.397-0.131-0.811-0.29-1.071-0.618c-0.242-0.305-0.315-0.717-0.281-1.104c0.083-0.952,0.436-1.969,0.822-2.839
						c0.314-0.706,0.525-1.545,1.491-1.557c-0.4-0.259-0.303-0.922,0.063-1.226c0.366-0.304,0.876-0.35,1.351-0.383
						c2.302-0.159,4.624-0.317,6.91-0.003c0.33,0.045,0.667,0.104,0.955,0.271c0.288,0.168,0.52,0.468,0.517,0.801
						C194.639,260.849,194.5,261.07,194.31,261.175z"/>
					<path style="fill:#B3B3B3;" d="M194.165,261.187c-3.036,0.901-6.314,0.848-9.353-0.041
						C187.871,261.784,191.044,261.024,194.165,261.187z"/>
					<path style="fill:#B3B3B3;" d="M191.709,260.001c0.044-0.013,0.094-0.03,0.113-0.069c0.022-0.045-0.009-0.1-0.055-0.126
						c-0.046-0.026-0.102-0.029-0.156-0.032c-1.131-0.057-2.265-0.026-3.397,0.005c-0.231,0.006-0.462,0.013-0.691,0.037
						c-0.1,0.01-0.22,0.041-0.242,0.131c-0.015,0.059,0.024,0.121,0.078,0.156c0.054,0.035,0.12,0.049,0.185,0.061
						c1.045,0.196,2.177,0.201,3.229,0.041C191.089,260.157,191.402,260.089,191.709,260.001z"/>
				</g>
			</g>
			<g>
				<g>
					<ellipse cx="247.086" cy="288.196" rx="33.093" ry="17.503"/>
					<path style="fill:#1A1A1A;" d="M218.9,285.986c1.853-1.866,11.76-11.459,27.509-11.543
						c16.016-0.085,26.121,9.729,27.923,11.543c-2.443-2.122-12.68-10.523-28.13-10.372
						C231.273,275.761,221.423,283.795,218.9,285.986z"/>
				</g>
				<g>
					<g>
						<path style="fill:#B5852A;" d="M262.399,275.844c6.121-3.104,10.945,2.151,14.003,7.036c1.905,3.13,5.343,7.121-0.198,8.778
							c-7.847-0.91-46.964,4.702-47.18-2.143c4.555-3.125,11.491-3.564,16.557-6.597
							C250.582,280.582,257.063,277.732,262.399,275.844z"/>
						<path style="fill:#F2A10A;" d="M230.894,287.604c-0.743,0.321-1.509,0.662-2.05,1.264c-0.541,0.602-0.794,1.542-0.375,2.234
							c0.566,0.935,1.95,0.913,2.966,0.51c1.016-0.403,1.975-1.077,3.068-1.077c1.749,0.001,3.053,1.704,4.768,2.046
							c2.132,0.426,4.07-1.324,6.215-1.678c2.074-0.342,4.167,0.649,6.261,0.472c2.475-0.209,4.673-2.022,7.154-1.904
							c1.33,0.064,2.628,0.689,3.947,0.498c1.067-0.155,1.996-0.827,3.052-1.047c1.064-0.222,2.163,0.032,3.22,0.284
							c1.234,0.295,2.467,0.589,3.701,0.884c0.703,0.168,1.65,0.291,2.352,0.048c0.299-0.104,0.574-0.335,0.639-0.645
							c0.05-0.238-0.027-0.482-0.107-0.711c-1.472-4.185-4.398-7.689-7.477-10.883c-1.026-1.064-2.161-2.153-3.608-2.458
							c-1.054-0.222-2.148,0.004-3.186,0.292c-1.837,0.51-3.612,1.214-5.356,1.977c-1.72,0.753-3.407,1.396-5.176,2.024
							c-3.646,1.294-7.27,2.654-10.867,4.081C236.97,285.032,233.922,286.294,230.894,287.604z"/>
					</g>
					<g>
						<g>
							<path style="fill:#F2594B;" d="M263.064,279.865c0,1.357-2.155,2.457-4.813,2.457c-2.658,0-4.813-1.1-4.813-2.457
								c0-1.357,2.155-2.457,4.813-2.457C260.91,277.407,263.064,278.508,263.064,279.865z"/>
							<path style="fill:#F57A6F;" d="M262.032,279.865c0,1.066-1.693,1.93-3.781,1.93c-2.088,0-3.78-0.864-3.78-1.93
								c0-1.066,1.693-1.93,3.78-1.93C260.34,277.934,262.032,278.799,262.032,279.865z"/>
						</g>
						<g>
							<ellipse style="fill:#F2594B;" cx="244.09" cy="286.227" rx="5.029" ry="2.568"/>
							<ellipse style="fill:#F57A6F;" cx="244.09" cy="286.227" rx="3.95" ry="2.017"/>
						</g>
						<g>
							<ellipse style="fill:#F2594B;" cx="259.972" cy="286.072" rx="5.029" ry="2.568"/>
							<path style="fill:#F57A6F;" d="M263.922,286.072c0,1.114-1.769,2.017-3.95,2.017c-2.181,0-3.95-0.903-3.95-2.017
								c0-1.114,1.769-2.017,3.95-2.017C262.154,284.055,263.922,284.958,263.922,286.072z"/>
						</g>
					</g>
					<g>
						<path style="fill:#B5852A;" d="M250.418,283.893c-0.03,0.242-0.009,0.547,0.215,0.643c0.183,0.079,0.39-0.038,0.545-0.164
							c0.45-0.363,0.815-0.857,0.932-1.424c0.101-0.488-0.046-1.643-0.808-1.238C250.698,282.032,250.493,283.287,250.418,283.893z"
							/>
						<path style="fill:#B5852A;" d="M266.678,282.667c0.143,0.093,0.316,0.18,0.478,0.128c0.167-0.054,0.259-0.244,0.255-0.419
							c-0.004-0.175-0.083-0.339-0.163-0.495c-0.225-0.438-1.201-2.067-1.777-1.176C265.011,281.416,266.17,282.336,266.678,282.667
							z"/>
						<path style="fill:#B5852A;" d="M268.895,286.489c-0.054,0.309,0.078,0.658,0.356,0.804c0.336,0.177,0.753,0.018,1.062-0.203
							c0.306-0.218,0.568-0.497,0.768-0.816c0.415-0.663-0.137-1.093-0.814-0.953C269.714,285.436,268.997,285.901,268.895,286.489z
							"/>
						<path style="fill:#B5852A;" d="M250.857,289.058c0.029,0.228,0.081,0.464,0.229,0.641c0.148,0.176,0.415,0.271,0.616,0.158
							c0.197-0.111,0.257-0.362,0.297-0.585c0.079-0.436,0.157-0.877,0.134-1.319c-0.01-0.187-0.045-0.388-0.181-0.517
							c-0.329-0.312-0.775-0.16-0.935,0.198C250.822,288.076,250.797,288.584,250.857,289.058z"/>
						<path style="fill:#B5852A;" d="M237.694,289.15c0.09,0.022,0.194,0.039,0.269-0.015c0.133-0.095,0.066-0.303-0.016-0.444
							c-0.292-0.498-0.638-0.984-1.126-1.292c-0.332-0.209-0.863-0.393-1.254-0.249c-0.448,0.165-0.327,0.5-0.062,0.77
							C236.096,288.52,236.878,288.951,237.694,289.15z"/>
					</g>
				</g>
			</g>
			<g>
				<g>
					<g>
						<ellipse cx="245.657" cy="358.249" rx="99.138" ry="46.222"/>
						<path style="fill:#1A1A1A;" d="M158.232,349.973c9.67-7.314,41.981-29.846,88.89-29.281c45.2,0.544,76.142,22.198,85.961,29.7
							c-12.916-7.882-43.682-24.277-86.17-24.68C203.029,325.295,171.159,342.17,158.232,349.973z"/>
					</g>
					<g>
						<g>
							<g>
								<path style="fill:#B5852A;" d="M245.657,320.777c-1.296,0-2.582,0.016-3.861,0.045c-1.567,0.035-2.727,1.47-2.43,3.01
									l6.262,32.459c0.014,0.071-0.049,0.133-0.12,0.119l-73.992-14.507c-0.807-0.158-1.654,0.076-2.239,0.654
									c-4.579,4.527-7.129,9.535-7.129,14.805c0,20.205,37.388,36.585,83.509,36.585c46.121,0,83.509-16.38,83.509-36.585
									C329.167,337.157,291.778,320.777,245.657,320.777z"/>
							</g>
							<path style="fill:#F2A10A;" d="M167.088,361.164c1.806,6.744,7.166,12.102,13.316,15.407
								c6.15,3.305,13.082,4.819,19.94,6.126c27.931,5.324,56.848,7.82,84.74,2.294c12.933-2.562,26.379-7.44,34.07-18.149
								c2.953-4.111,4.938-9.198,4.185-14.203c-1.122-7.461-7.837-12.748-14.538-16.217c-13.559-7.018-28.805-9.749-43.892-10.946
								c-4.619-0.367-9.249-0.594-13.879-0.761c-2.308-0.083-4.617-0.151-6.926-0.213c-1.863-0.05-4.184-0.554-5.118,1.553
								c-0.308,0.695-0.375,1.469-0.438,2.227c-0.243,2.948-0.447,6.093,0.982,8.683c0.82,1.485,2.154,2.732,2.515,4.389
								c0.418,1.919-0.58,3.912-0.284,5.853c0.231,1.517,1.213,2.793,2.062,4.071c0.849,1.278,1.621,2.769,1.353,4.28
								c-0.365-0.191-4.83-1.797-4.83-1.431c-1.748-0.316-3.38-1.112-5.185-0.948c-1.353,0.123-2.699,0.488-4.05,0.347
								c-2.48-0.258-4.464-2.137-6.806-2.991c-4.016-1.465-8.511,0.227-12.736-0.423c-4.543-0.698-8.328-4.021-12.846-4.869
								c-4.462-0.838-9.156,0.83-13.566-0.253c-2.039-0.501-3.89-1.564-5.848-2.323c-2.183-0.846-4.97-1.394-7.035,0.048
								c-1.482,1.035-2.312,3.089-3.126,4.666C166.903,351.732,165.791,356.32,167.088,361.164z"/>
						</g>
						<g>
							<g>
								<ellipse style="fill:#F2594B;" cx="252.349" cy="332.12" rx="6.692" ry="3.417"/>
								<path style="fill:#F57A6F;" d="M257.606,332.12c0,1.482-2.354,2.684-5.257,2.684c-2.903,0-5.257-1.202-5.257-2.684
									c0-1.482,2.354-2.684,5.257-2.684C255.252,329.436,257.606,330.637,257.606,332.12z"/>
							</g>
							<g>
								<path style="fill:#F2594B;" d="M277.446,338.708c0,1.887-2.996,3.417-6.692,3.417c-3.696,0-6.692-1.53-6.692-3.417
									c0-1.887,2.996-3.417,6.692-3.417C274.45,335.291,277.446,336.821,277.446,338.708z"/>
								<ellipse style="fill:#F57A6F;" cx="270.755" cy="338.708" rx="5.257" ry="2.684"/>
							</g>
							<g>
								<path style="fill:#F2594B;" d="M261.655,349.218c0,1.887-2.996,3.417-6.692,3.417c-3.696,0-6.692-1.53-6.692-3.417
									c0-1.887,2.996-3.417,6.692-3.417C258.659,345.801,261.655,347.331,261.655,349.218z"/>
								<path style="fill:#F57A6F;" d="M260.22,349.218c0,1.482-2.354,2.684-5.257,2.684c-2.903,0-5.257-1.202-5.257-2.684
									s2.354-2.684,5.257-2.684C257.867,346.534,260.22,347.736,260.22,349.218z"/>
							</g>
							<g>
								<ellipse style="fill:#F2594B;" cx="294.032" cy="338.221" rx="6.692" ry="3.417"/>
								<ellipse style="fill:#F57A6F;" cx="294.032" cy="338.221" rx="5.257" ry="2.684"/>
							</g>
							<g>
								<ellipse style="fill:#F2594B;" cx="277.446" cy="353.74" rx="6.692" ry="3.417"/>
								<ellipse style="fill:#F57A6F;" cx="277.446" cy="353.74" rx="5.257" ry="2.684"/>
							</g>
							<g>
								<path style="fill:#F2594B;" d="M267.545,372.564c0,1.887-2.996,3.417-6.692,3.417c-3.696,0-6.692-1.53-6.692-3.417
									c0-1.887,2.996-3.417,6.692-3.417C264.549,369.147,267.545,370.677,267.545,372.564z"/>
								<path style="fill:#F57A6F;" d="M266.11,372.564c0,1.482-2.353,2.684-5.257,2.684c-2.903,0-5.257-1.202-5.257-2.684
									c0-1.482,2.354-2.684,5.257-2.684C263.757,369.88,266.11,371.081,266.11,372.564z"/>
							</g>
							<g>
								<path style="fill:#F2594B;" d="M302.159,369.147c0,1.887-2.996,3.417-6.692,3.417c-3.696,0-6.692-1.53-6.692-3.417
									c0-1.887,2.996-3.417,6.692-3.417C299.163,365.73,302.159,367.26,302.159,369.147z"/>
								<path style="fill:#F57A6F;" d="M300.724,369.147c0,1.482-2.353,2.684-5.257,2.684c-2.903,0-5.257-1.202-5.257-2.684
									c0-1.482,2.354-2.684,5.257-2.684C298.37,366.463,300.724,367.664,300.724,369.147z"/>
							</g>
							<g>
								<path style="fill:#F2594B;" d="M232.956,363.897c0,1.887-2.996,3.417-6.692,3.417c-3.696,0-6.692-1.53-6.692-3.417
									c0-1.887,2.996-3.417,6.692-3.417C229.96,360.48,232.956,362.01,232.956,363.897z"/>
								<path style="fill:#F57A6F;" d="M231.521,363.897c0,1.482-2.354,2.684-5.257,2.684c-2.903,0-5.257-1.202-5.257-2.684
									c0-1.482,2.354-2.684,5.257-2.684C229.168,361.212,231.521,362.414,231.521,363.897z"/>
							</g>
							<g>
								<ellipse style="fill:#F2594B;" cx="191.824" cy="354.473" rx="6.692" ry="3.417"/>
								<path style="fill:#F57A6F;" d="M197.081,354.473c0,1.482-2.354,2.684-5.257,2.684c-2.903,0-5.257-1.202-5.257-2.684
									s2.354-2.684,5.257-2.684C194.728,351.789,197.081,352.991,197.081,354.473z"/>
							</g>
							<g>
								<path style="fill:#F2594B;" d="M203.773,369.88c0,1.887-2.996,3.417-6.692,3.417c-3.696,0-6.692-1.53-6.692-3.417
									c0-1.887,2.996-3.417,6.692-3.417C200.777,366.463,203.773,367.992,203.773,369.88z"/>
								<path style="fill:#F57A6F;" d="M202.338,369.88c0,1.482-2.354,2.684-5.257,2.684c-2.903,0-5.257-1.202-5.257-2.684
									c0-1.482,2.354-2.684,5.257-2.684C199.984,367.195,202.338,368.397,202.338,369.88z"/>
							</g>
							<g>
								<ellipse style="fill:#F2594B;" cx="236.402" cy="376.713" rx="6.692" ry="3.417"/>
								<path style="fill:#F57A6F;" d="M241.658,376.713c0,1.482-2.354,2.684-5.257,2.684c-2.903,0-5.257-1.202-5.257-2.684
									c0-1.482,2.354-2.684,5.257-2.684C239.305,374.029,241.658,375.231,241.658,376.713z"/>
							</g>
							<g>
								<ellipse style="fill:#F2594B;" cx="310.581" cy="352.635" rx="6.692" ry="3.417"/>
								<ellipse style="fill:#F57A6F;" cx="310.581" cy="352.635" rx="5.257" ry="2.684"/>
							</g>
							<g>
								<ellipse style="fill:#F2594B;" cx="255.597" cy="361.666" rx="6.692" ry="3.417"/>
								<path style="fill:#F57A6F;" d="M260.854,361.666c0,1.482-2.354,2.684-5.257,2.684c-2.903,0-5.257-1.202-5.257-2.684
									c0-1.482,2.354-2.684,5.257-2.684C258.5,358.982,260.854,360.183,260.854,361.666z"/>
							</g>
						</g>
						<g>
							<path style="fill:#B5852A;" d="M292.384,353.326c0.659,1.284,1.317,2.568,1.976,3.853c0.063,0.123,0.137,0.256,0.266,0.306
								c0.205,0.078,0.415-0.093,0.564-0.255c1.313-1.429,2.216-3.231,2.576-5.138c0.415-2.201-2.051-1.987-3.567-1.934
								C292.432,350.221,291.581,351.76,292.384,353.326z"/>
							<path style="fill:#B5852A;" d="M276.183,366.975c0.178,0.096,0.386,0.19,0.577,0.121c0.122-0.044,0.212-0.148,0.29-0.253
								c1.019-1.366,0.802-3.739-0.732-4.666c-1.748-1.056-2.785,0.842-2.386,2.362
								C274.232,365.686,275.183,366.435,276.183,366.975z"/>
							<path style="fill:#B5852A;" d="M239.467,364.365c-0.19,0.427-0.341,0.913-0.19,1.356c0.193,0.569,0.807,0.866,1.374,1.065
								c1.235,0.431,2.534,0.678,3.84,0.731c0.211,0.008,0.432,0.01,0.623-0.082c0.521-0.25,0.517-0.993,0.367-1.552
								c-0.398-1.49-1.267-2.849-2.453-3.835c-0.226-0.188-0.472-0.367-0.757-0.44C240.988,361.278,239.87,363.457,239.467,364.365z
								"/>
							<path style="fill:#B5852A;" d="M251.31,377.351c-0.667-0.216-1.477-0.329-2.001,0.137c-0.41,0.364-0.5,1.003-0.305,1.516
								s0.631,0.904,1.117,1.158c0.486,0.254,1.024,0.386,1.557,0.517c0.6,0.147,1.2,0.293,1.8,0.44
								c0.198,0.048,0.407,0.097,0.602,0.04c0.387-0.112,0.55-0.578,0.556-0.981C254.669,378.015,252.874,377.858,251.31,377.351z"
								/>
							<path style="fill:#B5852A;" d="M206.861,357.97c0.351,1.106,1.02,2.08,1.706,3.016c0.18,0.246,0.368,0.497,0.626,0.659
								c0.258,0.162,0.606,0.219,0.867,0.061c0.287-0.174,0.385-0.539,0.438-0.871c0.267-1.66,0.046-3.395-0.63-4.935
								c-0.407-0.926-1.585-2.321-2.701-1.394C206.331,355.201,206.585,357.1,206.861,357.97z"/>
							<path style="fill:#B5852A;" d="M181.261,364.38c0.584,0.399,1.379,0.206,2.028-0.075c0.899-0.389,1.735-0.921,2.468-1.57
								c1.114-0.986-2.429-1.573-3.167-1.458C181.347,361.47,179.848,363.416,181.261,364.38z"/>
							<path style="fill:#B5852A;" d="M216.215,377.852c0.663-0.096,1.211-0.584,1.576-1.145c0.459-0.706,1.389-3.619-0.3-3.42
								c-1.278,0.151-2.465,1.816-2.742,2.96C214.522,377.184,215.225,377.995,216.215,377.852z"/>
							<path style="fill:#B5852A;" d="M279.76,374.704c-0.226,0.088-0.45,0.198-0.62,0.372c-0.169,0.174-0.278,0.422-0.235,0.661
								c0.05,0.279,0.286,0.484,0.519,0.645c0.697,0.481,1.514,0.788,2.355,0.886c0.557,0.065,1.203,0.001,1.546-0.443
								c0.498-0.645,0.076-1.823-0.596-2.198C281.914,374.171,280.574,374.388,279.76,374.704z"/>
							<path style="fill:#B5852A;" d="M281.355,333.759c0.38,0.362,0.875,0.675,1.397,0.61c0.664-0.083,1.113-0.762,1.204-1.425
								c0.134-0.976-0.32-1.965-1.009-2.669c-0.695-0.71-2.368-1.367-2.925-0.13C279.501,331.3,280.557,332.998,281.355,333.759z"/>
							<path style="fill:#B5852A;" d="M259.896,343.223c0.288-1.233,0.205-2.55-0.236-3.738c-0.11-0.297-0.25-0.597-0.495-0.798
								c-0.974-0.8-3.08,0.343-2.556,1.628c0.267,0.654,0.901,1.272,1.422,1.73C258.172,342.169,259.88,343.29,259.896,343.223z"/>
							<path style="fill:#B5852A;" d="M280.873,345.072c-0.158,0.177-0.311,0.409-0.24,0.635c0.072,0.226,0.331,0.327,0.561,0.383
								c1.027,0.251,2.127,0.203,3.128-0.139c0.514-0.176,1.059-0.498,1.161-1.032c0.181-0.953-1.037-1.592-1.833-1.432
								C282.638,343.69,281.555,344.308,280.873,345.072z"/>
							<path style="fill:#B5852A;" d="M306.825,342.805c-0.236,0.49-0.276,1.149,0.127,1.514c0.295,0.268,0.73,0.295,1.128,0.304
								c0.612,0.013,1.224,0.016,1.837,0.007c0.301-0.004,0.626-0.02,0.861-0.208c0.269-0.215,0.34-0.597,0.314-0.94
								C310.909,341.073,307.817,340.744,306.825,342.805z"/>
							<path style="fill:#B5852A;" d="M308.459,365.378c0.196,0.606,0.52,1.274,1.137,1.432c0.652,0.167,1.29-0.327,1.69-0.868
								c0.974-1.318,1.838-5.022-0.653-5.303c-0.771-0.087-2.251,0.385-2.642,1.1C307.502,362.629,308.172,364.489,308.459,365.378z
								"/>
						</g>
						<g>
							<path style="fill:#B5852A;" d="M267.504,328.088c0.973-1.187,1.987-2.406,3.355-3.102c-0.75,0.381-1.647,2.481-2.137,3.195
								c-0.748,1.091-1.51,2.172-2.284,3.244c-1.573,2.177-3.201,4.315-4.88,6.412c-3.358,4.194-6.924,8.221-10.679,12.063
								c-2.046,2.093-4.126,4.186-6.323,6.119c6.088-6.989,11.801-14.343,17.68-21.509
								C263.992,332.369,265.748,330.228,267.504,328.088z"/>
							<path style="fill:#B5852A;" d="M258.948,388.99c0.246,0.521,0.492,1.043,0.736,1.564c-0.706-2.404-1.459-4.795-2.259-7.169
								c-1.739-5.162-3.699-10.25-5.872-15.244c-1.087-2.497-2.227-4.971-3.419-7.42c-0.596-1.224-1.203-2.444-1.828-3.654
								c-0.425-0.823-1.479-1.64-1.719-2.518c0.469,1.718,0.987,3.422,1.543,5.113C249.467,369.809,254.384,379.34,258.948,388.99z"
								/>
							<path style="fill:#B5852A;" d="M244.987,355.319c-0.165,0.354-0.352,0.692-0.506,1.052c-0.645,1.506-2.471,2.678-3.676,3.765
								c-1.496,1.35-3.008,2.684-4.535,4c-3.054,2.632-6.167,5.195-9.336,7.686c-3.169,2.491-6.395,4.911-9.674,7.257
								c-1.639,1.173-3.292,2.327-4.958,3.462c-0.833,0.568-1.669,1.131-2.508,1.689c-0.774,0.515-1.738,0.972-2.426,1.594
								c1.471-1.33,2.883-2.81,4.482-3.968c1.622-1.174,3.237-2.359,4.843-3.555c4.579-3.412,9.091-6.915,13.532-10.504
								C235.236,363.745,239.987,359.373,244.987,355.319z"/>
							<path style="fill:#B5852A;" d="M290.478,361.749c10.233,1.272,20.538,2.547,30.829,1.901
								c-11.668-1.433-23.336-2.866-35.004-4.299c-5.401-0.663-10.803-1.327-16.217-1.878c-5.605-0.57-11.221-1.021-16.837-1.471
								c-1.534-0.123-3.067-0.246-4.601-0.369c-1.16-0.093-2.738-0.49-3.841-0.226c1.159,1.611,5.25,1.316,7.016,1.536
								c3.103,0.386,6.205,0.771,9.308,1.157c6.249,0.777,12.497,1.554,18.746,2.33C283.411,360.87,286.945,361.31,290.478,361.749z
								"/>
							<path style="fill:#B5852A;" d="M307.688,334.804c-8.022,3.475-16.173,6.651-24.43,9.521
								c-8.257,2.87-16.621,5.434-25.069,7.684c-4.495,1.197-9.251,1.945-13.656,3.374c1.554,0.01,3.055-0.798,4.476-1.335
								c2.096-0.792,4.196-1.574,6.3-2.346c4.168-1.529,8.351-3.018,12.547-4.467c8.473-2.926,17.002-5.688,25.582-8.284
								c2.388-0.723,4.779-1.432,7.175-2.129C302.9,336.156,305.508,335.749,307.688,334.804z"/>
							<path style="fill:#B5852A;" d="M245.623,354.793c-25.61,7.527-52.433,10.912-79.11,9.984
								c0.234,0.008,1.532-1.004,2.149-1.067c1.134-0.115,2.436,0.011,3.604-0.04c2.611-0.113,5.221-0.248,7.829-0.404
								c5.331-0.318,10.656-0.726,15.973-1.222c10.634-0.993,21.235-2.34,31.779-4.04
								C233.792,357.046,239.719,355.975,245.623,354.793z"/>
						</g>
					</g>
				</g>
				<g>
					<path style="fill:#B3B3B3;" d="M226.177,341.108c1.567,10.015,17.413,9.802,19.356,0.013
						C247.133,325.219,227.064,325.639,226.177,341.108z"/>
					<path style="fill:#666666;" d="M231.57,339.151c0.005,1.778,1.137,3.52,2.786,4.186c1.648,0.666,3.713,0.173,4.832-1.209
						c0.555-0.685,0.873-1.542,0.993-2.415c0.218-1.593-0.26-3.317-1.436-4.413C235.832,332.584,231.559,335.651,231.57,339.151z"/>
					<path style="fill:#808080;" d="M223.725,336.461c-9.083-2.989-17.995-6.497-26.676-10.503c-0.62-0.286-1.266-0.597-1.663-1.151
						c-0.902-1.256,0.243-2.058,1.405-2.235c0.735-0.112,1.483,0.036,2.205,0.214c2.076,0.513,4.079,1.283,6.075,2.05
						c9.922,3.814,19.843,7.628,29.765,11.443c0,0.263,0.87,0.532,1.072,0.616c0.466,0.194,0.865,0.283,1.115,0.784
						c0.274,0.549,0.148,1.269-0.295,1.692c-0.719,0.687-1.879,0.467-2.836,0.197C230.481,338.604,227.092,337.568,223.725,336.461z
						"/>
				</g>
			</g>
		</g>
		<g>
			<g>
				<path style="fill:#F7B385;" d="M38.803,274.991c-0.633,3.7-0.874,7.443-0.016,11.069c1.611,6.805,7.404,10.531,13.787,12.269
					c7.6,2.07,15.689,2.403,23.522,2.04c2.828,0.128,33.182,1.808,33.284,1.126c0.523-3.483,1.047-6.966,1.57-10.449
					c-16.015-4.695-33.67-9.249-49.867-13.919c8.747-15.544,19.909-34.494,11.999-52.248c-2.021-4.108-7.805-7.817-12.117-4.621
					c-1.246,0.924-2.15,2.227-2.998,3.526c-9.099,13.937-14.378,30.03-18.134,46.245C39.453,271.665,39.088,273.324,38.803,274.991z
					"/>
				<path style="fill:#E0764C;" d="M51.918,282.363c-0.194,0.168-0.392,0.345-0.506,0.576c-0.114,0.231-0.127,0.53,0.035,0.729
					c0.301,0.371,0.895,0.161,1.306-0.081c1.499-0.885,2.943-1.863,4.322-2.925c0.697-0.537,1.378-1.096,2.041-1.675
					c0.515-0.45,1.422-1.04,1.709-1.65c-0.528-0.254-1.378,0.278-1.849,0.493c-0.851,0.389-1.683,0.818-2.493,1.285
					C54.864,280.051,53.332,281.139,51.918,282.363z"/>
				<path style="fill:#E0764C;" d="M45.738,285.623c0.401,1.822-0.063,3.816-1.226,5.274c0.338-0.422,0.064-2.003,0.007-2.509
					c-0.098-0.867-0.297-1.724-0.589-2.546c-0.6-1.689-1.588-3.04-2.781-4.346c1.175,0.156,1.814,0.015,2.749,0.901
					C44.808,283.261,45.468,284.395,45.738,285.623z"/>
			</g>
			<g>
				<path style="fill:#F7B385;" d="M128.84,292.571c0.2-0.01,0.54,0.201,0.752,0.245c0.282,0.059,0.572,0.051,0.852,0.109
					c0.533,0.11,1.077,0.221,1.614,0.337c1.216,0.263,2.41,0.631,3.561,1.105c0.821,0.338,1.887,0.71,2.156,1.659
					c0.236,0.834-0.271,1.986-1.096,2.269c1.14,0.244,2.048,1.348,1.914,2.538c-0.132,1.176-1.299,2.137-2.478,2.039
					c0.836,0.071,1.398,1.043,1.212,1.86c-0.187,0.818-0.945,1.415-1.759,1.619c-0.814,0.204-1.674,0.076-2.487-0.128
					c0.894,0.25,0.883,1.67,0.159,2.252c-0.724,0.582-1.746,0.558-2.672,0.495c-7.749-0.521-15.492-1.734-22.841-4.248
					c-1.228-0.42-2.516-0.93-3.273-1.983c-0.766-1.065-0.833-2.477-0.72-3.784c0.21-2.441,1.04-4.753,2.2-6.898
					c0.44-0.813,0.911-2.106,1.779-2.511c1.296-0.605,2.61-1.173,3.914-1.759c1.848-0.831,3.783-1.679,5.807-1.585
					c2.035,0.094,3.887,1.126,5.756,1.935c1.791,0.775,3.664,1.362,5.578,1.747c0.479,0.096,0.975,0.186,1.387,0.449
					s0.724,0.751,0.623,1.229c-0.082,0.384-0.412,0.678-0.777,0.822C129.633,292.531,129.232,292.552,128.84,292.571z"/>
				<g>
					<path style="fill:#E0764C;" d="M120.261,303.619c0.497-0.415,1.24-0.219,1.853-0.009c3.669,1.252,7.389,2.004,11.162,2.835
						C128.926,306.357,124.33,305.094,120.261,303.619z"/>
					<path style="fill:#E0764C;" d="M121.878,299.432c0.09-0.274,0.379-0.443,0.665-0.478c0.286-0.035,0.573,0.04,0.852,0.114
						c2.162,0.573,4.316,1.175,6.463,1.802c2.069,0.604,4.412,1.05,6.363,1.958c-0.677,0.41-2.454-0.287-3.189-0.442
						c-1.241-0.263-2.477-0.547-3.709-0.85C126.819,300.917,124.336,300.215,121.878,299.432z"/>
					<path style="fill:#E0764C;" d="M125.097,296.124c-0.237-0.06-0.483-0.124-0.671-0.281c-0.188-0.157-0.298-0.436-0.186-0.654
						c0.173-0.336,0.664-0.277,1.026-0.167c3.863,1.167,7.745,2.286,11.593,3.503C132.899,298.255,128.929,297.09,125.097,296.124z"
						/>
					<path style="fill:#E0764C;" d="M118.247,290.297c3.508-0.157,6.748,1.045,10.014,2.142c-0.647-0.352-1.544-0.44-2.257-0.611
						c-0.854-0.205-1.712-0.398-2.571-0.58c-0.86-0.182-1.722-0.352-2.586-0.51C120.043,290.59,119.062,290.26,118.247,290.297z"/>
				</g>
			</g>
		</g>
		<g>
			<g>
				<path style="fill:#A1633A;" d="M413.523,368.089c-3.081,3.985-4.658,9.107-4.351,14.135c0.022,0.362,0.058,0.738,0.25,1.046
					c0.319,0.512,1.009,0.698,1.598,0.569c0.589-0.128,1.09-0.512,1.522-0.932c2.126-2.067,3.025-5.17,5.222-7.162
					c0.292-0.265,0.726-0.517,1.054-0.297c0.368,0.246,0.228,0.812,0.039,1.213c-1.749,3.702-4.237,7.053-7.275,9.798
					c-0.682,0.616-1.411,1.227-1.811,2.054c-0.4,0.827-0.367,1.949,0.342,2.533c1.019,0.839,2.527,0.088,3.61-0.666
					c-0.963,1.342-1.976,2.933-1.547,4.529c0.086,0.319,0.232,0.628,0.462,0.865c0.567,0.586,1.533,0.612,2.278,0.282
					c0.745-0.33,1.321-0.943,1.875-1.541c-0.278,0.692-0.561,1.403-0.575,2.148c-0.014,0.746,0.298,1.545,0.953,1.901
					c0.514,0.28,1.142,0.245,1.715,0.122c1.682-0.361,3.135-1.381,4.536-2.377c-0.796,0.731-0.141,2.208,0.894,2.518
					c1.035,0.31,2.135-0.169,3.062-0.724c3.63-2.176,6.336-5.673,8.137-9.503s2.758-7.999,3.478-12.169
					c0.391-2.261,0.717-4.534,0.942-6.818c0.184-1.873,0.93-3.276-0.342-5.026c-0.773-1.064-1.914-1.8-3.076-2.418
					c-2.229-1.187-4.661-2.04-7.177-2.254c-3.416-0.29-6.007,0.887-8.922,2.417C417.746,363.733,415.369,365.701,413.523,368.089z"
					/>
				<g>
					<path style="fill:#753C17;" d="M413.556,390.526c3.927-2.713,6.845-6.853,8.079-11.464c0.057-0.215,0.117-0.44,0.269-0.603
						c0.152-0.162,0.43-0.23,0.597-0.083c0.161,0.142,0.143,0.394,0.107,0.606c-0.747,4.377-3.482,8.374-7.29,10.656
						c-0.931,0.558-1.953,1.044-2.616,1.903"/>
					<path style="fill:#753C17;" d="M430.745,383.379c0.049-0.198,0.097-0.4,0.207-0.572c0.11-0.172,0.295-0.309,0.499-0.304
						c0.31,0.008,0.519,0.328,0.587,0.63c0.13,0.582-0.057,1.184-0.26,1.745c-1.329,3.661-3.482,7.018-6.238,9.769
						c-0.757,0.755-1.581,1.61-2.489,2.179c-0.025-0.408,0.51-0.785,0.762-1.042c0.354-0.361,0.699-0.732,1.032-1.112
						c0.682-0.779,1.32-1.598,1.908-2.45c1.177-1.705,2.158-3.544,2.917-5.472C430.102,385.652,430.462,384.525,430.745,383.379z"/>
					<path style="fill:#753C17;" d="M424.1,384.288c0.395-1.078,0.722-2.203,1.38-3.143c0.183-0.261,0.464-0.532,0.773-0.453
						c0.387,0.098,0.439,0.625,0.377,1.02c-0.286,1.807-1.221,3.443-2.247,4.957c-1.859,2.743-4.077,5.241-6.579,7.413
						c-0.12,0.105-0.754,0.776-0.893,0.737c-0.334-0.094,0.183-0.513,0.258-0.578c0.591-0.504,1.156-1.038,1.695-1.598
						c1.077-1.12,2.045-2.344,2.888-3.649C422.704,387.518,423.496,385.938,424.1,384.288z"/>
				</g>
			</g>
			<g>
				<path style="fill:#8CC63F;" d="M461.786,300.824c-0.487,6.36-1.241,12.693-2.377,18.972c-1.557,8.604-3.843,17.094-7.074,25.225
					c-1.638,4.123-3.518,8.151-5.666,12.034c-1.588,2.871-3.403,7.361-6.457,8.948c-2.928,1.522-6.461,0.153-9.463-1.217
					c-1.758-0.803-3.695-1.8-4.28-3.641c-0.451-1.42,0.043-2.948,0.526-4.357c6.529-19.044,11.723-38.829,11.725-58.961
					c0.001-9.934-1.261-19.801-1.95-29.697c-0.608-8.736-2.057-19.627,2.176-27.638c1.858-3.516,5.189-5.262,8.361-7.474
					c0.737-0.514,1.534-1.049,2.433-1.064c1.301-0.022,2.354,1.04,3.083,2.119c3.962,5.861,6.74,11.347,8.189,18.366
					c1.299,6.297,1.467,12.766,1.534,19.195C462.646,281.364,462.528,291.125,461.786,300.824z"/>
				<path style="fill:#A3D165;" d="M427.748,348.965c0.336-0.234,0.702-0.417,1.105-0.527c1.251-0.341,2.572,0.099,3.774,0.585
					c4.703,1.899,9.089,4.582,12.921,7.905c0.535,0.464,1.073,0.958,1.381,1.596c0.894,1.856-0.351,4.453-1.163,6.147
					c-0.97,2.022-2.323,3.828-3.664,5.615c-0.34,0.453-0.727,0.937-1.281,1.056c-0.778,0.167-1.481-0.446-2.071-0.98
					c-4.079-3.695-9.419-5.613-14.609-7.444c-0.949-0.335-2.038-0.822-2.244-1.807c-0.105-0.501,0.056-1.016,0.221-1.501
					c0.973-2.861,2.107-5.773,3.675-8.365C426.311,350.388,426.94,349.528,427.748,348.965z"/>
				<path style="fill:#69952F;" d="M453.019,311.974c-0.642,1.633-0.685,3.494-0.119,5.154c0.239,0.701,0.593,1.381,1.145,1.875
					c0.552,0.494,1.325,0.778,2.048,0.62c-1.114-1.026-1.812-2.49-1.91-4.001c-0.074-1.15,0.2-2.322,0.766-3.325
					c0.344-0.609,1.896-1.789,1.68-2.473c-0.201-0.634-1.309-0.685-1.793-0.469C453.992,309.736,453.336,311.168,453.019,311.974z"
					/>
			</g>
		</g>
	</g>
</g>
</svg>
